<svg xmlns="http://www.w3.org/2000/svg" xmlns:xlink="http://www.w3.org/1999/xlink"><symbol fill="none" id="sprite-add-pet-info-icon" viewBox="0 0 14 14"><title>add-pet-info-icon</title><path d="M7 13.667A6.667 6.667 0 1 1 7 .334a6.667 6.667 0 0 1 0 13.333Zm0-1.334A5.333 5.333 0 1 0 7 1.667a5.333 5.333 0 0 0 0 10.666ZM6.333 9h1.334v1.333H6.333V9Zm1.334-1.097v.43H6.333v-1A.667.667 0 0 1 7 6.667a1 1 0 1 0-.98-1.196l-1.31-.262a2.334 2.334 0 1 1 2.956 2.694Z" fill="#fff"/></symbol><use fill="none" xlink:href="#sprite-add-pet-info-icon" width="14" height="14"/><symbol fill="none" id="sprite-arrow-accordion" viewBox="0 0 19 11"><title>arrow-accordion</title><path d="m1 1 8.364 8.067 8.636-8"/></symbol><use fill="none" xlink:href="#sprite-arrow-accordion" y="14" width="19" height="11"/><symbol fill="none" id="sprite-arrow-next-product" viewBox="0 0 7 10"><title>arrow-next-product</title><path d="m1 1 4 4-4 4" stroke="#E0E0E0" stroke-width="2"/></symbol><use fill="none" xlink:href="#sprite-arrow-next-product" y="25" width="7" height="10"/><symbol fill="none" id="sprite-arrow" viewBox="0 0 14 9"><title>arrow</title><path d="m1 1 6 6 6-6" stroke="#202454" stroke-width="2"/></symbol><use fill="none" xlink:href="#sprite-arrow" y="35" width="14" height="9"/><symbol fill="none" id="sprite-basket-icon-card" viewBox="0 0 21 20"><title>basket-icon-card</title><g clip-path="url(#a)" stroke="#3A9EFD" stroke-width="2" stroke-miterlimit="10"><path d="M1.69 8c-.07-.345.206-.759.551-.828h17.104c.414 0 .69.276.69.69V8L18.24 18.345c-.069.345-.345.552-.69.552H4.173c-.344 0-.62-.207-.69-.552L1.69 8Z"/><path d="M8.448.965 5.69 6.483M13.276.965l2.759 5.518-2.76-5.518Z" stroke-linecap="round" stroke-linejoin="round"/></g><defs><clipPath id="a"><path fill="#fff" d="M0 0h21v20H0z"/></clipPath></defs></symbol><use fill="none" xlink:href="#sprite-basket-icon-card" y="44" width="21" height="20"/><symbol fill="none" id="sprite-basket" viewBox="0 0 32 32"><title>basket</title><path d="M2 12.6c-.1-.5.3-1.1.8-1.2h24.8c.6 0 1 .4 1 1v.2l-2.6 15c-.1.5-.5.8-1 .8H5.6c-.5 0-.9-.3-1-.8L2 12.6Zm9.8-10.2-4 8m11-8 4 8-4-8Z"/></symbol><use fill="none" xlink:href="#sprite-basket" y="64" width="32" height="32"/><symbol fill="none" id="sprite-benefits-1" viewBox="0 0 40 26"><title>benefits-1</title><rect x="1.25" y="1.25" width="37.5" height="23.5" rx="1.75" stroke="#E9793A" stroke-width="2.5" stroke-linecap="round" stroke-linejoin="round"/><path d="M1.667 6.5h36.666M6.74 13.054h9.094m-9.094 3.9h4.928M25.833 19.5l8.334-8.125" stroke="#E9793A" stroke-width="2.5" stroke-linecap="round"/><path d="M28.167 12.188c0 .77-.648 1.437-1.5 1.437-.853 0-1.5-.667-1.5-1.438 0-.77.647-1.437 1.5-1.437.852 0 1.5.667 1.5 1.438Zm6.666 6.5c0 .77-.647 1.437-1.5 1.437-.852 0-1.5-.667-1.5-1.438 0-.77.648-1.437 1.5-1.437.853 0 1.5.667 1.5 1.438Z" stroke="#E9793A" stroke-width="2"/></symbol><use fill="none" xlink:href="#sprite-benefits-1" y="96" width="40" height="26"/><symbol fill="none" id="sprite-benefits-2" viewBox="0 0 30 32"><title>benefits-2</title><path d="M1.59 32V19.02l-.213-.106C.53 18.437 0 17.484 0 16.53v-5.298a2.736 2.736 0 0 1 2.755-2.755h1.324l-.317-.636a5.504 5.504 0 0 1-.583-2.437c0-1.43.583-2.808 1.59-3.815A5.417 5.417 0 0 1 8.582 0a7.603 7.603 0 0 1 6.04 3.02l.317.477.318-.477A7.603 7.603 0 0 1 21.298 0c.848 0 1.695.212 2.437.583 2.65 1.377 3.709 4.609 2.331 7.258l-.265.636h1.325a2.736 2.736 0 0 1 2.755 2.755v5.298c0 .953-.53 1.907-1.378 2.384l-.212.106V32H1.59Zm14.516-2.331h9.854V19.285h-9.854v10.384Zm-12.185 0h9.854V19.285H3.92v10.384Zm12.185-12.715H27.55v-6.146H16.106v6.146Zm-13.775 0h11.444v-6.146H2.33v6.146ZM21.298 2.33a5.2 5.2 0 0 0-5.192 5.192v.954h5.192a3.075 3.075 0 0 0 3.073-3.073 3.075 3.075 0 0 0-3.073-3.073Zm-12.715 0A3.075 3.075 0 0 0 5.51 5.404a3.075 3.075 0 0 0 3.073 3.073h5.192v-.954a5.2 5.2 0 0 0-5.192-5.192Z" fill="#E9793A"/></symbol><use fill="none" xlink:href="#sprite-benefits-2" y="122" width="30" height="32"/><symbol fill="none" id="sprite-benefits-3" viewBox="0 0 32 32"><title>benefits-3</title><path d="M16 16a5.818 5.818 0 0 1-5.818-5.818V1.455A1.454 1.454 0 0 1 11.636 0h8.728a1.454 1.454 0 0 1 1.454 1.455v8.727A5.818 5.818 0 0 1 16 16ZM13.091 2.91v7.272a2.91 2.91 0 0 0 5.818 0V2.909h-5.818Z" fill="#E9793A"/><path d="M6.546 16c-1.01.02-2.01-.21-2.91-.67A6.502 6.502 0 0 1 0 9.456c0-.17.03-.336.087-.495l2.91-8A1.454 1.454 0 0 1 4.363 0h7.272a1.454 1.454 0 0 1 1.455 1.455v8A6.56 6.56 0 0 1 6.546 16ZM2.909 9.687a3.622 3.622 0 0 0 2.066 3.026 3.33 3.33 0 0 0 1.57.378 3.636 3.636 0 0 0 3.637-3.636V2.909h-4.8L2.909 9.687ZM25.455 16a6.56 6.56 0 0 1-6.546-6.545v-8A1.454 1.454 0 0 1 20.364 0h7.273a1.455 1.455 0 0 1 1.367.96l2.909 8c.057.159.087.326.087.495a6.53 6.53 0 0 1-3.753 5.905 6.08 6.08 0 0 1-2.792.64ZM21.818 2.91v6.545a3.636 3.636 0 0 0 3.637 3.636 3.258 3.258 0 0 0 1.454-.35 3.65 3.65 0 0 0 2.182-3.054L26.618 2.91h-4.8Z" fill="#E9793A"/><path d="M27.637 32H4.364a1.454 1.454 0 0 1-1.455-1.454v-16.51a1.455 1.455 0 0 1 .698-1.236 1.454 1.454 0 0 1 1.455 0c.451.228.95.347 1.454.35a3.638 3.638 0 0 0 3.666-3.695 1.455 1.455 0 0 1 2.909 0v.727a2.91 2.91 0 1 0 5.818 0v-.727a1.454 1.454 0 1 1 2.91 0 3.636 3.636 0 0 0 3.636 3.636 3.258 3.258 0 0 0 1.454-.35 1.455 1.455 0 0 1 1.455 0 1.455 1.455 0 0 1 .698 1.237v16.568A1.454 1.454 0 0 1 27.637 32ZM5.818 29.09h20.364V16a5.922 5.922 0 0 1-.727 0 6.56 6.56 0 0 1-4.902-2.21 5.817 5.817 0 0 1-9.106 0A6.618 6.618 0 0 1 5.818 16v13.09Z" fill="#E9793A"/><path d="M30.546 32H1.455a1.454 1.454 0 1 1 0-2.91h29.09a1.455 1.455 0 0 1 0 2.91Z" fill="#E9793A"/><path d="M20.364 32h-8.728a1.455 1.455 0 0 1-1.454-1.454V20.364a1.455 1.455 0 0 1 1.454-1.455h8.728a1.454 1.454 0 0 1 1.454 1.455v10.181A1.455 1.455 0 0 1 20.364 32Zm-7.273-2.909h5.818v-7.273h-5.818v7.273Z" fill="#E9793A"/></symbol><use fill="none" xlink:href="#sprite-benefits-3" y="154" width="32" height="32"/><symbol fill="none" id="sprite-benefits-4" viewBox="0 0 45 32"><title>benefits-4</title><path d="M8.742 8.8H5.516c-.7 0-1.262.562-1.262 1.263 0 .701.561 1.262 1.262 1.262h3.226c.701 0 1.262-.56 1.262-1.262 0-.701-.56-1.262-1.262-1.262Zm0 5.938H3.366c-.701 0-1.262.56-1.262 1.262 0 .701.56 1.262 1.262 1.262h5.376c.701 0 1.262-.56 1.262-1.262 0-.701-.56-1.262-1.262-1.262Zm0 5.89h-7.48c-.701 0-1.262.56-1.262 1.262 0 .701.561 1.262 1.262 1.262h7.48c.701 0 1.262-.56 1.262-1.262 0-.701-.56-1.262-1.262-1.262ZM43.664 6.697 29.452.105a1.427 1.427 0 0 0-1.075 0L14.165 6.697c-.467.187-.748.654-.748 1.169V24.18c0 .514.28.935.748 1.169l14.212 6.545c.327.14.748.14 1.075 0l14.212-6.592c.468-.187.748-.654.748-1.169V7.866c0-.515-.28-.935-.748-1.17ZM27.629 28.763 15.942 23.34V9.83l4.3 2.01v7.48c0 .7.561 1.261 1.263 1.261.701 0 1.262-.56 1.262-1.262v-6.311l4.862 2.244v13.51Zm1.309-15.708-4.348-2.01 4.675-2.15c.655-.281.935-1.03.608-1.684a1.213 1.213 0 0 0-1.683-.608L21.598 9.69l-3.833-1.777 11.22-5.189 11.22 5.19-11.267 5.142Zm12.95 10.285L30.2 28.763V15.252l11.688-5.423v13.51Z" fill="#E9793A"/><path d="M33.8 19.226a.942.942 0 0 0 .514-.14l4.441-2.058c.655-.28.935-1.028.608-1.683a1.213 1.213 0 0 0-1.683-.607l-4.441 2.057a1.213 1.213 0 0 0-.608 1.683c.234.467.701.748 1.169.748Zm0 4.768a.942.942 0 0 0 .514-.14l4.441-2.057c.655-.28.935-1.029.608-1.683a1.213 1.213 0 0 0-1.683-.608l-4.441 2.057a1.213 1.213 0 0 0-.608 1.683 1.33 1.33 0 0 0 1.169.748Z" fill="#E9793A"/></symbol><use fill="none" xlink:href="#sprite-benefits-4" y="186" width="45" height="32"/><symbol fill="none" id="sprite-check-white" viewBox="0 0 12 10"><title>check-white</title><path d="m1 5 3 4 7-8" stroke="#fff"/></symbol><use fill="none" xlink:href="#sprite-check-white" y="218" width="12" height="10"/><symbol fill="none" id="sprite-check" viewBox="0 0 12 11"><title>check</title><path d="m1 5 3 4 7-8" stroke="#202454" stroke-width="2"/></symbol><use fill="none" xlink:href="#sprite-check" y="228" width="12" height="11"/><symbol fill="none" id="sprite-favorites" viewBox="0 0 27 25"><title>favorites</title><path d="m12.885 2.798.672.587.66-.601c2.712-2.473 7.108-2.358 9.709.239a6.989 6.989 0 0 1 .25 9.678L13.535 23.578 2.779 12.84C.299 9.984.44 5.74 3.025 3.158c2.739-2.735 7.01-2.85 9.86-.36Z"/></symbol><use fill="none" xlink:href="#sprite-favorites" y="239" width="27" height="25"/><symbol fill="none" id="sprite-fb-login" viewBox="0 0 12 25"><title>fb-login</title><path d="M8 14.3h2.857L12 9.5H8V7.1c0-1.236 0-2.4 2.286-2.4H12V.668C11.627.616 10.22.5 8.735.5 5.632.5 3.429 2.488 3.429 6.14V9.5H0v4.8h3.429v10.2H8V14.3Z" fill="currentColor"/></symbol><use fill="none" xlink:href="#sprite-fb-login" y="264" width="12" height="25"/><symbol fill="none" id="sprite-geolocation" viewBox="0 0 12 14"><title>geolocation</title><path d="M9.982 9.935 5.834 14 1.686 9.871a5.783 5.783 0 0 1 0-8.194c2.268-2.258 5.963-2.258 8.231 0 2.334 2.323 2.334 5.936.065 8.258ZM5.834 7.742c1.102 0 1.944-.839 1.944-1.936 0-1.096-.842-1.935-1.944-1.935-1.102 0-1.944.839-1.944 1.935 0 1.097.842 1.936 1.944 1.936Z" fill="currentColor"/></symbol><use fill="none" xlink:href="#sprite-geolocation" y="289" width="12" height="14"/><symbol fill="none" id="sprite-google-login" viewBox="0 0 20 21"><title>google-login</title><path d="M1.064 6.01A9.996 9.996 0 0 1 10 .5c2.695 0 4.959.99 6.69 2.605l-2.867 2.868C12.786 4.982 11.468 4.477 10 4.477c-2.605 0-4.81 1.76-5.595 4.123-.2.6-.314 1.24-.314 1.9 0 .66.114 1.3.314 1.9.786 2.364 2.99 4.123 5.595 4.123 1.345 0 2.49-.355 3.386-.955a4.601 4.601 0 0 0 1.996-3.018H10V8.682h9.418c.118.654.182 1.336.182 2.045 0 3.046-1.09 5.61-2.982 7.35C14.964 19.605 12.7 20.5 10 20.5A9.998 9.998 0 0 1 1.064 6.01Z" fill="currentColor"/></symbol><use fill="none" xlink:href="#sprite-google-login" y="303" width="20" height="21"/><symbol fill="none" id="sprite-icon-chat" viewBox="0 0 34 33"><title>icon-chat</title><path d="M13.667 0h6.666a13.333 13.333 0 1 1 0 26.667V32.5c-8.333-3.333-20-8.333-20-19.167A13.333 13.333 0 0 1 13.667 0Z" fill="currentColor"/></symbol><use fill="none" xlink:href="#sprite-icon-chat" y="324" width="34" height="33"/><symbol fill="none" id="sprite-icon-fb" viewBox="0 0 12 24"><title>icon-fb</title><path d="M8 13.8h2.857L12 9H8V6.6c0-1.236 0-2.4 2.286-2.4H12V.168C11.627.116 10.22 0 8.735 0 5.632 0 3.429 1.988 3.429 5.64V9H0v4.8h3.429V24H8V13.8Z" fill="#fff"/></symbol><use fill="none" xlink:href="#sprite-icon-fb" y="357" width="12" height="24"/><symbol fill="none" id="sprite-icon-instagram" viewBox="0 0 24 24"><title>icon-instagram</title><path d="M11.625 8.4c-.925 0-1.812.38-2.466 1.054A3.66 3.66 0 0 0 8.137 12c0 .955.368 1.87 1.022 2.546a3.433 3.433 0 0 0 2.466 1.054c.925 0 1.812-.38 2.466-1.054A3.66 3.66 0 0 0 15.113 12a3.66 3.66 0 0 0-1.022-2.546A3.433 3.433 0 0 0 11.625 8.4Zm0-2.4c1.542 0 3.02.632 4.11 1.757A6.1 6.1 0 0 1 17.438 12a6.1 6.1 0 0 1-1.703 4.243A5.722 5.722 0 0 1 11.625 18a5.722 5.722 0 0 1-4.11-1.757A6.1 6.1 0 0 1 5.813 12a6.1 6.1 0 0 1 1.702-4.243A5.722 5.722 0 0 1 11.625 6Zm7.556-.3c0 .398-.153.78-.425 1.06a1.43 1.43 0 0 1-1.028.44 1.43 1.43 0 0 1-1.027-.44 1.525 1.525 0 0 1-.426-1.06c0-.398.153-.78.426-1.06a1.43 1.43 0 0 1 1.027-.44c.385 0 .755.158 1.028.44.272.28.425.662.425 1.06Zm-7.556-3.3c-2.876 0-3.346.008-4.684.07-.911.044-1.523.17-2.09.398a3.347 3.347 0 0 0-1.255.844 3.48 3.48 0 0 0-.819 1.296c-.22.588-.343 1.218-.385 2.157-.06 1.325-.067 1.788-.067 4.835 0 2.969.008 3.454.067 4.835.043.94.166 1.572.385 2.156.198.522.43.898.816 1.296.392.403.756.645 1.256.844.574.229 1.186.356 2.092.4 1.284.062 1.732.069 4.684.069 2.876 0 3.346-.008 4.684-.07.909-.044 1.521-.17 2.089-.397.503-.203.87-.444 1.255-.842.392-.405.626-.78.819-1.296.22-.592.344-1.224.386-2.16.06-1.325.067-1.788.067-4.835 0-2.969-.008-3.454-.067-4.835-.043-.938-.166-1.572-.386-2.157a3.506 3.506 0 0 0-.818-1.296 3.345 3.345 0 0 0-1.255-.845c-.57-.228-1.181-.354-2.09-.397-1.284-.063-1.732-.07-4.684-.07Zm0-2.4c3.159 0 3.553.012 4.792.072 1.238.06 2.08.26 2.822.558a5.653 5.653 0 0 1 2.06 1.384 5.913 5.913 0 0 1 1.34 2.126c.288.764.483 1.636.541 2.914.055 1.279.07 1.686.07 4.946s-.012 3.667-.07 4.946c-.058 1.278-.253 2.148-.54 2.914a5.882 5.882 0 0 1-1.34 2.126 5.7 5.7 0 0 1-2.06 1.384c-.741.296-1.585.498-2.823.558-1.24.056-1.634.072-4.792.072-3.159 0-3.553-.012-4.792-.072-1.238-.06-2.08-.262-2.822-.558a5.67 5.67 0 0 1-2.06-1.384A5.907 5.907 0 0 1 .61 19.86c-.289-.764-.483-1.636-.541-2.914C.015 15.667 0 15.26 0 12s.012-3.667.07-4.946c.058-1.28.252-2.148.54-2.914a5.878 5.878 0 0 1 1.34-2.126A5.679 5.679 0 0 1 4.01.63C4.753.332 5.595.132 6.834.072 8.073.016 8.466 0 11.625 0Z" fill="#fff"/></symbol><use fill="none" xlink:href="#sprite-icon-instagram" y="381" width="24" height="24"/><symbol fill="none" id="sprite-icon-mail" viewBox="0 0 27 24"><title>icon-mail</title><path d="M1.333 0h24a1.334 1.334 0 0 1 1.334 1.333v21.334A1.334 1.334 0 0 1 25.333 24h-24A1.334 1.334 0 0 1 0 22.667V1.333A1.333 1.333 0 0 1 1.333 0ZM24 5.65l-10.57 9.467L2.666 5.621v15.712H24V5.651ZM3.348 2.668l10.067 8.882 9.921-8.882H3.348Z" fill="currentColor"/></symbol><use fill="none" xlink:href="#sprite-icon-mail" y="405" width="27" height="24"/><symbol fill="none" id="sprite-icon-menu-birds" viewBox="0 0 32 32"><title>icon-menu-birds</title><mask id="a" style="mask-type:alpha" maskUnits="userSpaceOnUse" x="0" y="0" width="32" height="32"><circle cx="16" cy="16" r="16" fill="#FFAF00"/></mask><g mask="url(#a)"><path d="M22.219 13.863c2.137 0 6.672 3.238 4.016 7.708-.222.374-1.043-1.205-2.591-1.36-1.166-.117-1.082.175-2.008.26-.801.072-1.598-.778-1.944-1.167" stroke="currentColor" stroke-width="1.143" stroke-linecap="round"/><path d="M5.312 29.086c.777-7.58 4.08-16 4.08-16s-2.746-3.798.065-7.644c.056-.076 2.624 4.628 6.608 5.053 1.813.193 5.034.23 5.765.648 1.36.777.389 2.353 0 2.98m-1.101 17.36-1.62-7.903m-1.554-.324c2.461.907 5.389-.92 5.7-3.304" stroke="currentColor" stroke-width="1.143"/><ellipse cx="15.222" cy="16.26" rx=".713" ry="1.036" fill="currentColor"/></g></symbol><use fill="none" xlink:href="#sprite-icon-menu-birds" y="429" width="32" height="32"/><symbol fill="none" id="sprite-icon-menu-cat" viewBox="0 0 25 25"><title>icon-menu-cat</title><path d="M3.98 23.91C1.988 13.822 5.276 1.445 6.571.72c.583-.327 2.008 1.83 3.11 3.385h7.19c.713-.777 1.982-3.239 2.656-3.239.842 0 1.425 8.616 1.036 11.013-.195 1.207-1.425 3.044-1.684 3.368 1.684 1.36 5.377 5.636 5.377 7.384" stroke="currentColor" stroke-width="1.143"/><ellipse cx="10.069" cy="9.316" rx=".648" ry=".936" fill="#202454"/><ellipse cx="16.159" cy="9.316" rx=".648" ry=".936" fill="#202454"/><path d="M13.78 11.813a.48.48 0 0 1-.758-.019.48.48 0 0 1 .392-.768.479.479 0 0 1 .366.787Z" fill="currentColor" stroke="currentColor" stroke-width="3.306"/><path stroke="currentColor" stroke-width="1.143" d="m1.595 9.239 4.794.648m.208 2.315-6.477.647m18.686-2.962 4.017-.519m-4.148 2.839 5.441.777"/></symbol><use fill="none" xlink:href="#sprite-icon-menu-cat" y="461" width="25" height="25"/><symbol fill="none" id="sprite-icon-menu-dog" viewBox="0 0 25 27"><title>icon-menu-dog</title><path d="M1.636 24.992C1.118 18.19 3.553 2.165 5.263 1.543c.583-.212 2.268 2.072 2.85 4.21l4.989-.647C13.684 3.875 15.174.73 15.627.7c.777-.052 1.425 4.08 2.073 7.255 1.036-.13 2.008-.195 2.98-.332m-3.952 19.894-.648-8.939c2.527-.518 6.31-1.671 6.672-1.878.363-.208.972-3.822 1.102-6.802M20.68 7.624s2.701-.37 2.916-.187c.272.234.276 1.254.259 2.462M20.68 7.624c-.064.98.071 1.763.454 2.145.518.518 2 .222 2.72.13" stroke="currentColor" stroke-width="1.143"/><path d="M10.586 10.057a.99.99 0 0 1-.157.557c-.094.135-.206.195-.308.195-.101 0-.213-.06-.306-.195a.99.99 0 0 1-.158-.557.99.99 0 0 1 .158-.557c.093-.136.205-.195.306-.195.102 0 .214.059.308.195a.99.99 0 0 1 .157.557Zm4.016-.519a.99.99 0 0 1-.157.557c-.094.136-.206.195-.307.195-.102 0-.213-.059-.307-.194a.99.99 0 0 1-.157-.558.99.99 0 0 1 .157-.557c.094-.135.205-.195.307-.195.101 0 .213.06.307.195a.99.99 0 0 1 .157.557Z" fill="currentColor" stroke="currentColor" stroke-width=".367"/></symbol><use fill="none" xlink:href="#sprite-icon-menu-dog" y="486" width="25" height="27"/><symbol fill="none" id="sprite-icon-menu-procent" viewBox="0 0 20 22"><title>icon-menu-procent</title><path d="M.963 4.922c0-1.221.396-2.21 1.19-2.967C2.944 1.19 3.983.807 5.27.807c1.303 0 2.351.378 3.144 1.134.793.748 1.19 1.764 1.19 3.05v.984c0 1.23-.397 2.219-1.19 2.966-.793.748-1.832 1.121-3.117 1.121-1.294 0-2.343-.373-3.145-1.12-.793-.757-1.19-1.773-1.19-3.05v-.97Zm2.625 1.053c0 .546.155.989.465 1.326.319.328.733.492 1.244.492.51 0 .916-.169 1.217-.506.3-.337.45-.788.45-1.353V4.922c0-.547-.15-.99-.45-1.326-.301-.338-.716-.506-1.244-.506-.502 0-.907.168-1.217.506-.31.328-.465.788-.465 1.38v.999Zm6.89 10.144c0-1.23.402-2.22 1.204-2.967.802-.756 1.84-1.134 3.117-1.134 1.294 0 2.338.373 3.13 1.12.803.739 1.204 1.76 1.204 3.063v.985c0 1.22-.392 2.21-1.176 2.966-.784.748-1.827 1.121-3.13 1.121-1.313 0-2.366-.378-3.159-1.134-.793-.757-1.19-1.76-1.19-3.008v-1.012Zm2.626 1.067c0 .5.164.93.492 1.285.328.355.738.533 1.23.533 1.112 0 1.668-.615 1.668-1.846V16.12c0-.547-.155-.984-.465-1.312-.31-.338-.72-.506-1.23-.506s-.92.168-1.23.506c-.31.328-.466.779-.466 1.353v1.026ZM6.076 19.51l-1.928-1.04L13.87 2.913l1.928 1.04-9.72 15.558Z" fill="currentColor"/></symbol><use fill="none" xlink:href="#sprite-icon-menu-procent" y="513" width="20" height="22"/><symbol fill="none" id="sprite-icon-menu-rodents" viewBox="0 0 21 27"><title>icon-menu-rodents</title><g opacity=".9"><ellipse cx="13.109" cy="15.61" rx=".648" ry=".936" fill="#202454"/><path d="M3.069 26.399c0-4.617 2.72-13.085 2.72-13.085C.801 10.287.663 1.654 1.384 1.654c2.397 0 8.616 3.768 9.134 8.42.021.194 9.522 1.102 9.263 6.284a3.339 3.339 0 0 1-.154.842m-6.907 5.442c.602-.163 1.773-.456 2.591-.86m0 0c.346 1.345.532 4.176.584 4.746m-.583-4.746c1.843-.91 3.743-2.77 4.315-4.582m0 0c.03-.323-.817-.701-2.048-.971" stroke="currentColor" stroke-width="1.143"/><path d="M13.433 10.787c1.23-4.534-3.003-9.752-3.498-9.587-.389.13-1.48 1.778-1.953 4.146" stroke="currentColor" stroke-width="1.143"/></g></symbol><use fill="none" xlink:href="#sprite-icon-menu-rodents" y="535" width="21" height="27"/><symbol fill="none" id="sprite-icon-menu-star" viewBox="0 0 24 22"><title>icon-menu-star</title><path d="m12 0 2.694 8.292h8.719l-7.054 5.124 2.694 8.292L12 16.584l-7.053 5.124 2.694-8.292L.587 8.292h8.719L12 0Z" fill="currentColor"/></symbol><use fill="none" xlink:href="#sprite-icon-menu-star" y="562" width="24" height="22"/><symbol fill="none" id="sprite-icon-twitter" viewBox="0 0 17 14"><title>icon-twitter</title><path d="M16.999 1.64a6.992 6.992 0 0 1-2.004.55A3.5 3.5 0 0 0 16.53.26a6.97 6.97 0 0 1-2.215.846 3.488 3.488 0 0 0-5.943 3.181A9.903 9.903 0 0 1 1.182.643 3.487 3.487 0 0 0 2.263 5.3a3.476 3.476 0 0 1-1.58-.437v.044a3.49 3.49 0 0 0 2.799 3.42c-.514.14-1.053.16-1.577.06a3.49 3.49 0 0 0 3.259 2.423A7.002 7.002 0 0 1 0 12.254a9.866 9.866 0 0 0 5.345 1.568c6.416 0 9.925-5.315 9.925-9.924 0-.15-.004-.302-.011-.45a7.086 7.086 0 0 0 1.74-1.806V1.64Z" fill="#fff"/></symbol><use fill="none" xlink:href="#sprite-icon-twitter" y="584" width="17" height="14"/><symbol fill="none" id="sprite-icon-watsapp" viewBox="0 0 22 24"><title>icon-watsapp</title><path d="M21.3 13.05c.3-2.7.3-4.95 0-6.9a7.05 7.05 0 0 0-2.1-4.05L18 1.35l-2.7-.9C14.1.15 12.6 0 11.1 0h-.6a22.95 22.95 0 0 0-6.15 1.05c-.9.3-1.5.75-2.1 1.2C.75 3.75.15 6 0 9.15v2.1l.15 2.25.75 2.25a6 6 0 0 0 4.05 3.3c.046 1.65.096 3.3.15 4.95l.45-.15 3.6-4.35a25.96 25.96 0 0 0 8.1-.9 49.621 49.621 0 0 0 1.8-1.05l1.05-1.05.75-1.5.45-2.1v.15ZM14.1 9c0 .3-.15.45-.45.45L13.5 9c0-1.2-.6-1.8-1.65-1.8l-.3-.15V6.6h.3c1.5 0 2.25.75 2.4 2.25L14.1 9Zm1.05.6c0-1.05-.3-2.1-1.05-2.85s-1.65-1.2-3-1.2l-.3-.3v-.3l.45-.15c1.5 0 2.55.6 3.3 1.5.9.9 1.2 2.1 1.2 3.3v.3h-.45l-.15-.3Zm2.4.75-.15.3h-.3l-.15-.3c0-2.1-.75-3.6-1.95-4.8a6 6 0 0 0-4.5-1.8c-.15 0-.3 0-.3-.3s.15-.45.3-.45a7.05 7.05 0 0 1 7.05 7.2v.15Zm-.6 5.1-1.2 1.5c-.45.3-1.05.45-1.5.15a21.301 21.301 0 0 1-5.4-3A13.65 13.65 0 0 1 5.1 9.6c-.5-.875-.95-1.776-1.35-2.7v-.15c-.15-.6 0-1.05.3-1.5l1.5-1.35c.45-.15.9 0 1.2.3A48.45 48.45 0 0 0 8.4 6.6c.45.6.3 1.05 0 1.5l-.75.3-.3.3v.9l.6.9.75 1.2 1.2 1.05 1.8.9c.3 0 .6 0 .75-.3l.6-.6c.3-.45.75-.6 1.35-.3l2.4 1.8c.3.3.45.75.15 1.2Z" fill="#fff"/></symbol><use fill="none" xlink:href="#sprite-icon-watsapp" y="598" width="22" height="24"/><symbol fill="none" id="sprite-login" viewBox="0 0 22 26"><title>login</title><g clip-path="url(#a)"><circle cx="11" cy="8" r="6"/><path d="M1 24a6 6 0 0 1 6-6h8a6 6 0 0 1 6 6v3H1v-3Z"/></g><defs><clipPath id="a"><path fill="#fff" d="M0 0h22v26H0z"/></clipPath></defs></symbol><use fill="none" xlink:href="#sprite-login" y="622" width="22" height="26"/><symbol fill="none" id="sprite-minus-input" viewBox="0 0 17 1"><title>minus-input</title><path d="M17 0v1H0V0h17Z" fill="currentColor"/></symbol><use fill="none" xlink:href="#sprite-minus-input" y="648" width="17" height="1"/><symbol fill="none" id="sprite-paw-icon" viewBox="0 0 57 55"><title>paw-icon</title><g opacity=".5" clip-path="url(#a)"><path d="m30.974 16.076-.001.003c-.436 1.825-1.296 3.356-2.285 4.347-1.004 1.005-2.005 1.339-2.801 1.161-.795-.177-1.536-.888-1.98-2.194-.44-1.29-.524-3.015-.09-4.839.451-1.855 1.312-3.385 2.295-4.367.996-.995 1.991-1.322 2.792-1.143.802.18 1.547.886 1.993 2.178.44 1.28.526 3.003.077 4.854ZM18.91 18.744c-.036 1.784-.525 3.371-1.243 4.483-.728 1.128-1.59 1.638-2.37 1.64-.77.002-1.588-.488-2.254-1.59-.66-1.091-1.082-2.665-1.046-4.452.035-1.784.524-3.371 1.242-4.483.728-1.128 1.591-1.638 2.37-1.64.77-.002 1.588.488 2.255 1.59.66 1.091 1.082 2.665 1.046 4.452ZM9.928 38.439v-.001c-.86-.996-.871-2.326.086-4.012.961-1.694 2.795-3.502 5.082-5.052 2.277-1.543 4.921-2.775 7.425-3.368 2.527-.598 4.762-.514 6.352.364 1.576.87 2.832 2.711 3.67 5.168.829 2.433 1.196 5.327 1.103 8.076-.093 2.762-.646 5.277-1.57 6.99-.917 1.703-2.053 2.403-3.37 2.2h-.003c-1.426-.215-2.273-.6-2.833-1.025-.56-.425-.915-.95-1.267-1.609a19.772 19.772 0 0 1-.281-.55c-.63-1.253-1.425-2.841-3.599-3.912h-.001l-.001-.001h-.001v-.001h-.002l-.001-.001h-.001v-.001h-.001l-.002-.001-.001-.001h-.001l-.001-.001h-.001l-.001-.001h-.001v-.001h-.001l-.001-.001h-.002v-.001h-.001l-.001-.001H20.7v-.001h-.002l-.001-.001h-.001v-.001h-.002v-.001h-.001l-.001-.001h-.001v-.001h-.002l-.001-.001h-.001v-.001h-.002v-.001h-.001l-.001-.001h-.001l-.001-.001h-.001v-.001h-.002v-.001h-.001l-.001-.001h-.001l-.001-.001h-.001l-.001-.001h-.001v-.001h-.002v-.001h-.002v-.001h-.001l-.001-.001h-.001l-.001-.001h-.001l-.001-.001h-.001v-.001h-.002v-.001h-.002v-.001h-.002v-.001h-.001l-.001-.001h-.001v-.001h-.002v-.001h-.002v-.001h-.001l-.001-.001h-.001l-.001-.001h-.001v-.001h-.002v-.001h-.002v-.001h-.002v-.001h-.001l-.001-.001h-.001v-.001h-.002v-.001h-.002v-.001h-.002v-.001h-.001l-.001-.001h-.001l-.001-.001h-.001l-.001-.001h-.001v-.001h-.001l-.001-.001h-.001l-.001-.001h-.001l-.001-.001h-.001v-.001h-.002v-.001h-.002v-.001h-.002v-.001h-.001l-.001-.001h-.001l-.001-.001h-.001v-.001H20.6v-.001h-.001l-.001-.001h-.001l-.001-.001h-.001l-.001-.001h-.001v-.001h-.002v-.001h-.002v-.001h-.001l-.001-.001h-.001l-.001-.001h-.001v-.001h-.002v-.001h-.002v-.001h-.002v-.001h-.001l-.001-.001h-.001v-.001h-.002v-.001h-.002v-.001h-.001l-.001-.001h-.001l-.001-.001h-.001l-.001-.001h-.001l-.001-.001h-.001v-.001h-.002v-.001h-.002v-.001h-.001l-.001-.001h-.001l-.001-.001h-.001l-.001-.001h-.001v-.001h-.002v-.001h-.001l-.001-.001h-.001l-.001-.001h-.001v-.001h-.002v-.001h-.001l-.001-.001h-.001l-.001-.001h-.001v-.001h-.002v-.001h-.002v-.001h-.002v-.001h-.001l-.001-.001h-.001l-.001-.001h-.001l-.001-.001h-.001v-.001h-.002v-.001h-.001l-.001-.001h-.002v-.001h-.001v-.001h-.002v-.001h-.002v-.001h-.001l-.001-.001h-.001l-.001-.001h-.001l-.001-.001h-.001l-.001-.001h-.001v-.001h-.001l-.001-.001H20.5l-.001-.001h-.001v-.001h-.002v-.001h-.002l-.001-.001h-.001v-.001h-.002v-.001h-.001l-.001-.001h-.001l-.001-.001h-.001l-.001-.001h-.001v-.001h-.002v-.001h-.001v-.001h-.002v-.001h-.002v-.001h-.001l-.002-.001-.001-.001h-.002v-.001h-.001v-.001h-.002v-.001h-.001l-.002-.001h-.001v-.001h-.002v-.001h-.001l-.001-.001h-.002v-.001h-.001v-.001h-.001l-.002-.001-.001-.001h-.001l-.002-.001-.001-.001h-.001v-.001h-.002v-.001h-.001l-.001-.001h-.001l-.001-.001h-.002v-.001h-.001v-.001h-.002v-.001h-.001l-.002-.001-.001-.001h-.001l-.001-.001h-.001v-.001h-.002v-.001h-.002v-.001h-.002v-.001h-.001l-.001-.001h-.001l-.001-.001h-.001v-.001h-.002v-.001h-.001l-.001-.001h-.001l-.001-.001h-.001v-.001h-.002v-.001h-.001l-.001-.001h-.001l-.001-.001h-.001l-.001-.001h-.001v-.001H20.4v-.001h-.002v-.001h-.001l-.001-.001h-.001l-.001-.001h-.001l-.001-.001h-.001l-.001-.001h-.001v-.001h-.002v-.001h-.002v-.001h-.001l-.001-.001h-.001v-.001h-.002v-.001h-.002v-.001h-.002v-.001h-.001l-.001-.001h-.001l-.001-.001h-.001v-.001h-.002v-.001h-.002v-.001h-.001l-.001-.001h-.001l-.001-.001h-.001l-.001-.001h-.001v-.001h-.001l-.001-.001h-.001l-.001-.001h-.001l-.001-.001h-.001v-.001h-.002v-.001h-.002v-.001h-.002V41.5h-.001l-.001-.001h-.001l-.001-.001h-.001l-.001-.001h-.001v-.001h-.001l-.001-.001h-.001l-.001-.001h-.001l-.001-.001h-.001v-.001h-.002v-.001h-.002v-.001h-.002v-.001h-.001l-.001-.001h-.001v-.001h-.002v-.001h-.002v-.001h-.002v-.001h-.001l-.001-.001h-.001l-.001-.001h-.001v-.001h-.002v-.001h-.002v-.001h-.001l-.001-.001h-.001v-.001h-.002v-.001h-.002v-.001H20.3v-.001l-.001-.001h-.001l-.001-.001h-.001l-.001-.001h-.001v-.001h-.002v-.001h-.002v-.001h-.001l-.001-.001h-.001l-.001-.001h-.001v-.001h-.002v-.001h-.002v-.001h-.001l-.001-.001h-.001l-.001-.001h-.001v-.001h-.002v-.001h-.001l-.001-.001h-.002v-.001h-.001l-.001-.001h-.001v-.001h-.002v-.001h-.001l-.001-.001h-.002v-.001h-.001l-.001-.001h-.001v-.001h-.003v-.001h-.001v-.001h-.001l-.001-.001h-.002v-.001h-.001l-.001-.001h-.001v-.001h-.002v-.001h-.001l-.001-.001h-.002v-.001h-.001l-.001-.001h-.002v-.001c-2.09-1.283-3.87-1.116-5.277-.984-.212.02-.415.04-.61.053-.75.05-1.385.03-2.044-.218-.66-.248-1.437-.76-2.378-1.852ZM36.463 19.11l.003-.003c1.326-1.366 2.83-2.212 4.148-2.52 1.33-.313 2.325-.058 2.904.525.579.583.832 1.599.521 2.971-.307 1.356-1.144 2.9-2.474 4.27-1.327 1.367-2.83 2.213-4.148 2.522-1.33.312-2.326.058-2.905-.526-.574-.579-.826-1.604-.51-2.99.311-1.364 1.149-2.908 2.461-4.249Zm8.505 10.12c1.272-.017 2.121.419 2.535 1.076.393.649.42 1.656-.142 2.878-.554 1.205-1.624 2.47-3.11 3.447l-.006.004c-1.506 1.006-3.059 1.486-4.326 1.503-1.276.017-2.126-.42-2.54-1.08-.413-.661-.441-1.663.125-2.88.559-1.2 1.641-2.46 3.132-3.44l.006-.004c1.506-1.007 3.058-1.486 4.326-1.503Z" stroke="#8D58E3" stroke-width="2"/><mask id="b" fill="#fff"><path d="M47.09 15.093c-.264-.146-1.262-.835-2.707.16.383.555 1.482 2.058 1.482 2.058s.172-1.56 1.225-2.218Z"/></mask><path d="m47.09 15.093 1.061 1.695 2.881-1.803-2.975-1.643-.967 1.75Zm-2.707.16-1.134-1.648-1.647 1.134 1.134 1.647 1.647-1.134Zm1.482 2.058-1.614 1.181 3.04 4.153.563-5.115-1.989-.219Zm2.192-3.97c.043.025-.224-.133-.472-.246a4.127 4.127 0 0 0-1.123-.33c-.981-.14-2.094.07-3.213.84l2.268 3.295a1.06 1.06 0 0 1 .333-.169.205.205 0 0 1 .04-.006h.007c.001 0 .012.002.036.013a.756.756 0 0 1 .098.053l.093.053 1.933-3.502Zm-5.321 3.045c.207.302.593.837.913 1.278.162.225.313.431.423.582l.13.18.037.049.01.013.002.003v.001l1.614-1.18 1.614-1.182-.002-.004-.01-.012-.035-.048a187.186 187.186 0 0 1-1.401-1.947l-3.295 2.267Zm3.13.925 1.987.22v.008l-.001.006a.16.16 0 0 1-.001.008v-.006l.016-.082c.017-.084.047-.2.092-.323.11-.295.21-.365.192-.354l-2.122-3.39c-1.071.67-1.582 1.709-1.822 2.358a6.283 6.283 0 0 0-.327 1.312l-.001.013v.006l-.001.003v.001l1.987.22Z" fill="#8D58E3" mask="url(#b)"/><mask id="c" fill="#fff"><path d="M30.246 7.655s-1.005-1.175-.739-2.406c-.275.123-1.499.343-1.787 2.114.645.08 2.526.292 2.526.292Z"/></mask><path d="m30.246 7.655-.223 1.987 5.04.568-3.297-3.855-1.52 1.3Zm-.739-2.406 1.955.422L32.3 1.8l-3.613 1.626.821 1.824ZM27.72 7.363l-1.974-.321-.334 2.049 2.06.257.248-1.985Zm2.526.292a312.475 312.475 0 0 1 1.522-1.298l.001.002.003.003a.216.216 0 0 0 .005.005l.005.007-.002-.003a2.086 2.086 0 0 1-.205-.333c-.128-.264-.11-.38-.113-.367l-3.91-.845c-.268 1.244.12 2.332.427 2.963a6.089 6.089 0 0 0 .731 1.147l.009.01a.249.249 0 0 1 .006.008c.001 0 .001.001 1.521-1.299Zm-1.56-4.23c.3-.135-.673.202-1.293.682-.788.611-1.424 1.564-1.647 2.935l3.948.642c.036-.223.09-.33.112-.368.021-.035.034-.044.038-.047a.34.34 0 0 1 .077-.04 1.52 1.52 0 0 1 .108-.04l.104-.038c.037-.013.111-.041.195-.079l-1.642-3.647Zm-1.213 5.923a194.483 194.483 0 0 0 2.244.26 388.088 388.088 0 0 0 .3.034h.005l.224-1.987.224-1.987h-.001l-.004-.001-.016-.002a97.903 97.903 0 0 1-.282-.032c-.186-.02-.44-.05-.715-.081a160.99 160.99 0 0 1-1.485-.174l-.494 3.97Z" fill="#8D58E3" mask="url(#c)"/><mask id="d" fill="#fff"><path d="M16.702 11.342s-1.093-1.017-1.014-2.282c-.275.123-1.481.56-1.5 2.342.621-.002 2.514-.06 2.514-.06Z"/></mask><path d="m16.702 11.342.061 2 4.864-.15-3.563-3.314-1.362 1.464ZM15.688 9.06l1.996.124.206-3.308-3.023 1.36.82 1.824Zm-1.5 2.342-2-.021-.02 2.026 2.026-.005-.006-2Zm2.514-.06a278.034 278.034 0 0 1 1.363-1.463h.001l.002.002a.11.11 0 0 1 .003.003l.005.005.007.007a1.26 1.26 0 0 1-.049-.053 2.04 2.04 0 0 1-.183-.244c-.151-.237-.17-.38-.167-.415l-3.992-.248c-.077 1.23.412 2.228.788 2.816a6.033 6.033 0 0 0 .816 1.013l.025.024a.739.739 0 0 0 .01.01l.005.004.002.002c.001.001.002.001 1.364-1.463Zm-1.835-4.106a5.007 5.007 0 0 0-.513.251 4.222 4.222 0 0 0-.945.727c-.703.722-1.206 1.771-1.22 3.167l4 .042a1 1 0 0 1 .054-.364c.015-.038.028-.05.032-.055a.232.232 0 0 1 .052-.037c.045-.026.037-.019.182-.084l-1.642-3.647Zm-.673 6.166a87.99 87.99 0 0 0 1.537-.031 291.69 291.69 0 0 0 .948-.027l.062-.002h.022l-.061-2-.061-1.999h-.001a.322.322 0 0 0-.02 0l-.06.003a266.101 266.101 0 0 1-.935.026c-.558.015-1.16.029-1.442.03l.01 4Z" fill="#8D58E3" mask="url(#d)"/><mask id="e" fill="#fff"><path d="M51.147 28.841c-.235-.199-1.145-1.046-2.69-.245.3.58 1.178 2.236 1.178 2.236s.359-1.525 1.512-1.99Z"/></mask><path d="m51.147 28.841.75 1.854 3.072-1.242-2.53-2.14-1.292 1.528Zm-2.69-.245-.921-1.775-1.776.92.921 1.776 1.776-.92Zm1.178 2.236-1.768.936 2.493 4.704 1.221-5.182-1.946-.458Zm2.803-3.518c-.1-.086-.672-.613-1.565-.884-.965-.293-2.117-.242-3.337.39l1.841 3.552a.914.914 0 0 1 .314-.113c.027-.003.03.001.022-.001-.002 0 .005 0 .024.014.026.017.03.02.119.096l2.582-3.054Zm-5.757 2.203a260.664 260.664 0 0 0 1.044 1.983l.104.195a10.852 10.852 0 0 1 .036.068l.002.004v.001l1.768-.936 1.767-.937v-.001l-.003-.003-.007-.014-.028-.054-.104-.195-.333-.63c-.258-.489-.549-1.04-.695-1.322l-3.55 1.841Zm2.954 1.315c1.946.458 1.946.459 1.946.46v.003l-.002.004-.002.007a1.334 1.334 0 0 0-.002.008c0 .004 0 .002.002-.003.003-.011.01-.037.023-.074.026-.076.068-.18.124-.286.137-.259.226-.277.172-.256l-1.498-3.708c-1.207.488-1.875 1.464-2.205 2.084a6.03 6.03 0 0 0-.5 1.277l-.002.014-.002.006v.004s-.001.001 1.946.46Z" fill="#8D58E3" mask="url(#e)"/></g><defs><clipPath id="a"><path fill="#fff" transform="rotate(28.901 10 38.806)" d="M0 0h41.207v40H0z"/></clipPath></defs></symbol><use fill="none" xlink:href="#sprite-paw-icon" y="649" width="57" height="55"/><symbol fill="none" id="sprite-payment-1" viewBox="0 0 85 28"><title>payment-1</title><path d="M84.786.097H0v27.35h84.786V.097Z" fill="red"/><path d="m5.652 11.31 1.733-.638v.82c.455-.637 1.185-.91 1.914-.91 1.55 0 2.735 1.275 2.735 2.825v.183c.182 1.458-.912 2.826-2.461 3.008h-.274c-.73 0-1.459-.364-1.914-.911v2.643H5.652v-7.02Zm4.559 2.28c.091-.82-.456-1.55-1.185-1.641-.73-.092-1.55.455-1.641 1.185v.364c-.092.82.455 1.55 1.185 1.642.73.09 1.55-.456 1.64-1.186v-.364Zm8.661-3.009h1.732v1.003c.365-.82.912-1.003 2.006-1.003v1.459h-.091c-1.186 0-1.824.911-1.824 2.37v2.097h-1.732v-5.926h-.091Zm4.923 4.285V12.04h-.73v-1.46h.73v-.91l1.732-.638v1.55h1.459v1.459h-1.459V14.5c0 .365.182.547.456.547.273 0 .547-.09.73-.182v1.367c-.365.274-.821.365-1.277.365-1.003-.091-1.641-.456-1.641-1.732Zm3.738-4.285h1.64v.82c.366-.546 1.004-.91 1.642-.91.638 0 1.276.273 1.64.91.457-.546 1.186-.91 1.915-.91 1.186 0 1.915.729 1.915 2.187v3.83h-1.459v-3.283c0-.82-.364-1.185-1.003-1.185-.638 0-1.002.365-1.002 1.185v3.282h-1.733v-3.282c0-.82-.364-1.185-1.003-1.185-.638 0-.911.365-.911 1.185v3.282h-1.732v-5.926h.09Zm16.137 0h1.732v.82a2.075 2.075 0 0 1 1.732-.91c1.094 0 1.914.82 2.006 1.823v4.194h-1.733v-3.283c0-.82-.364-1.185-1.002-1.185-.639 0-1.003.365-1.003 1.185v3.282h-1.733v-5.926Zm6.017 3.099c-.092-1.64 1.185-2.916 2.735-3.008h.09c1.915 0 2.827 1.46 2.827 3.191v.456h-4.102c.09.73.729 1.185 1.458 1.094.547 0 1.003-.182 1.459-.547l.456 1.276c-.547.456-1.185.639-1.915.639a2.828 2.828 0 0 1-3.008-2.827v-.273Zm4.102-.637c0-.638-.547-1.185-1.185-1.277-.638 0-1.185.547-1.276 1.277h2.461Zm4.103.547c0-1.641 1.276-3.009 2.917-3.009h.091c.638 0 1.277.182 1.824.547-.091.365-.547 1.368-.547 1.368-.365-.365-.82-.547-1.368-.547-.912.09-1.55.911-1.367 1.823.09.73.729 1.367 1.458 1.367.547 0 1.003-.273 1.368-.638l.547 1.368c-.547.456-1.185.638-1.915.638-1.64 0-3.008-1.276-3.008-2.917 0 .09 0 0 0 0Zm12.125-3.009h1.732v.82c.365-.546 1.003-.91 1.641-.91.638 0 1.277.273 1.641.91.456-.546 1.185-.91 1.915-.91 1.185 0 1.914.729 1.914 2.187v3.83h-1.458v-3.283c0-.82-.365-1.185-1.003-1.185-.638 0-1.003.365-1.003 1.185v3.282h-1.732v-3.282c0-.82-.365-1.185-1.003-1.185-.638 0-1.003.365-1.003 1.185v3.282h-1.732l.091-5.926Zm-13.402 6.017c.453 0 .82-.408.82-.911 0-.504-.367-.912-.82-.912-.453 0-.82.408-.82.912 0 .503.367.911.82.911Zm-41.299 0a3.074 3.074 0 0 1-3.1-3.1c0-1.732 1.368-3.1 3.1-3.1s3.1 1.368 3.1 3.1c-.091 1.733-1.459 3.1-3.1 3.1Zm0-4.558a1.44 1.44 0 0 0-1.459 1.459c0 .82.639 1.458 1.46 1.458a1.44 1.44 0 0 0 1.458-1.458c-.091-.73-.73-1.368-1.459-1.459Zm24.798 4.558a3.074 3.074 0 0 1-3.1-3.1c0-1.732 1.368-3.1 3.1-3.1s3.1 1.368 3.1 3.1c0 1.733-1.368 3.1-3.1 3.1Zm0-4.558a1.44 1.44 0 0 0-1.459 1.459c0 .82.639 1.458 1.459 1.458a1.44 1.44 0 0 0 1.459-1.458c0-.73-.639-1.368-1.459-1.459Zm26.074 4.558a3.074 3.074 0 0 1-3.1-3.1c0-1.732 1.368-3.1 3.1-3.1s3.1 1.368 3.1 3.1c0 1.733-1.368 3.1-3.1 3.1Zm0-4.558a1.44 1.44 0 0 0-1.459 1.459c0 .82.639 1.458 1.459 1.458a1.44 1.44 0 0 0 1.459-1.458c0-.73-.639-1.368-1.459-1.459Z" fill="#fff"/></symbol><use fill="none" xlink:href="#sprite-payment-1" y="704" width="85" height="28"/><symbol fill="none" id="sprite-payment-2" viewBox="0 0 42 32"><title>payment-2</title><path d="M41.527 12.764c0 7.02-5.744 12.763-12.764 12.763S16 19.783 16 12.763 21.744 0 28.764 0s12.763 5.744 12.763 12.764Z" fill="#F79F1A"/><path d="M25.755 12.764c0 7.02-5.744 12.763-12.763 12.763-7.02 0-12.764-5.744-12.764-12.764S5.972 0 12.992 0s12.763 5.744 12.763 12.764Z" fill="#EA001B"/><path d="M20.923 2.735c-5.561 4.376-6.473 12.399-2.097 17.96.638.82 1.368 1.55 2.097 2.097 5.561-4.376 6.473-12.399 2.097-17.96a22.768 22.768 0 0 0-2.097-2.097Z" fill="#FF5F01"/><path d="M3.145 32h-.729v-3.647h.73v.456a2.173 2.173 0 0 1 1.002-.547c.456 0 .912.274 1.185.638.274-.364.639-.638 1.186-.638.638 0 1.185.456 1.367 1.094v2.462h-.73V29.72s0-.638-.82-.638-.911.638-.911.638v2.097h-.73V29.72c.091 0 0-.638-.638-.638-.82 0-.82.729-.82.729V32h-.092Zm21.881-3.647a3.37 3.37 0 0 0-1.003.456v-.547h-.73v3.465h.73V29.63s0-.639.82-.639c.091 0 .274 0 .365.092l.274-.639c-.092-.09-.274-.09-.456-.09Zm10.302 0a3.37 3.37 0 0 0-1.003.456v-.547h-.73v3.465h.73V29.63s0-.639.82-.639c.091 0 .274 0 .365.092l.273-.639c-.09-.09-.273-.09-.455-.09Zm-25.254 0c-.912 0-1.732.82-1.64 1.824 0 1.003.728 1.823 1.731 1.823.456 0 .82-.182 1.186-.456v.274h.729v-3.465h-1.003v.547c.091 0-.365-.547-1.003-.547Zm.091.638c.638 0 1.186.456 1.186 1.003 0 .639-.456 1.186-1.003 1.186-.639 0-1.186-.456-1.186-1.003v-.091c0-.547.456-1.003 1.003-1.095Zm20.605-.638c-.912 0-1.733.82-1.642 1.824 0 1.003.73 1.823 1.732 1.823.456 0 .912-.182 1.277-.456v.274h.456v-3.465h-.73v.547a1.3 1.3 0 0 0-1.094-.547Zm.182.638c.638 0 1.185.456 1.185 1.003 0 .639-.456 1.186-1.003 1.186-.638 0-1.185-.456-1.185-1.003v-.091c-.091-.547.364-1.003 1.003-1.095 0 .092 0 .092 0 0Zm6.655-.638c-.912 0-1.732.82-1.641 1.824 0 1.003.73 1.823 1.732 1.823.365 0 .82-.182 1.094-.456v.274h.73v-4.741h-1.003v1.732c.273.091-.183-.456-.912-.456Zm.182.638c.638 0 1.185.456 1.185 1.003 0 .639-.455 1.186-1.002 1.186-.639 0-1.186-.456-1.186-1.003v-.091c-.09-.548.365-1.003 1.003-1.095Zm-23.704 2.918c-.546 0-1.002-.182-1.458-.456l.273-.456c.365.183.73.274 1.094.274.274 0 .82-.091.82-.365 0-.273-.82-.456-.82-.456s-1.276 0-1.276-1.094c0-.638.638-1.094 1.459-1.094.456.091.911.182 1.367.456l-.364.547c-.365-.091-.639-.274-1.003-.274-.274 0-.638.183-.638.365 0 .73 2.096-.091 2.096 1.368 0 1.003-.82 1.185-1.55 1.185Zm2.827-4.559v1.003h-.73v.73h.73v1.732c-.091.547.364 1.094 1.003 1.185h.09c.274-.091.639-.091.912-.273l-.273-.73c-.182.091-.365.183-.547.183-.547 0-.547-.365-.547-.365v-1.732h1.276v-.73H17.55V27.35h-.638Zm4.193.912c-1.002.182-1.64 1.185-1.458 2.097.182.73.73 1.367 1.55 1.459a5.27 5.27 0 0 0 1.276-.456l-.365-.547c-.273.182-.638.364-1.003.364-.547 0-1.002-.364-1.002-.911h2.461c.091 0 .274-2.006-1.459-2.006Zm-.09.73h.09c.456 0 .82.273.82.729v.091h-1.731c0-.456.273-.82.82-.82-.09 0-.09 0 0 0Zm7.384 1.914.365.638c-.365.183-.73.365-1.095.365-1.002 0-1.823-.73-1.914-1.732v-.091c0-.912.73-1.733 1.641-1.733h.182c.456 0 .82.183 1.277.365l-.365.73c-.182-.274-.547-.365-.912-.365-.638.09-1.002.729-.82 1.367.091.456.456.73.82.82.274 0 .547-.09.82-.364Z" fill="#fff"/><path d="M40.98 31.362c-.091 0-.182 0-.273.091-.092.091-.092.365 0 .456.182.091.364.091.455 0 .092-.091.092-.365 0-.456 0-.091-.09-.091-.182-.091Zm0 .638c-.182 0-.273-.091-.273-.273 0-.183.09-.274.273-.274.091 0 .091 0 .182.091a.277.277 0 0 1 0 .365c-.09 0-.09.091-.182.091Zm0-.456v.547h-.091l.091-.273h.091-.09.09v-.183c0-.09-.09-.09-.09-.09Zm0 0c0 .091 0 .091 0 0 0 .091 0 .091 0 0Z" fill="#000"/></symbol><use fill="none" xlink:href="#sprite-payment-2" y="732" width="42" height="32"/><symbol fill="none" id="sprite-payment-3" viewBox="0 0 60 20"><title>payment-3</title><path d="M31.114 6.399c0 2.644 2.37 4.102 4.194 5.014 1.823.912 2.461 1.459 2.461 2.28 0 1.184-1.459 1.732-2.826 1.823-1.732 0-3.373-.365-4.832-1.185l-.82 4.01a14.73 14.73 0 0 0 5.287 1.004c5.015 0 8.205-2.462 8.297-6.29 0-4.833-6.656-5.106-6.656-7.294 0-.638.639-1.368 2.006-1.55a8.168 8.168 0 0 1 4.65.82l.82-3.92a12.506 12.506 0 0 0-4.467-.82c-4.832 0-8.114 2.552-8.114 6.108ZM51.536.564c-.912 0-1.641.547-2.006 1.368l-7.111 16.957h5.014l1.003-2.735h6.108l.547 2.735h4.376L55.638.655l-4.102-.09Zm.729 5.106 1.459 6.837h-3.92l2.461-6.837ZM25.097.655l-3.92 18.234h4.74L29.747.655h-4.65Zm-7.111 0-4.923 12.4-2.006-10.576C10.875 1.385 9.963.655 8.869.655H.846l-.091.547c1.641.365 3.19.82 4.65 1.55.638.274 1.002.912 1.094 1.55l3.737 14.587h5.015L22.909.655h-5.014" fill="url(#a)"/><defs><linearGradient id="a" x1=".81" y1="9.822" x2="59.431" y2="9.822" gradientUnits="userSpaceOnUse"><stop stop-color="#274BA3"/><stop offset="1" stop-color="#6A70BE"/></linearGradient></defs></symbol><use fill="none" xlink:href="#sprite-payment-3" y="764" width="60" height="20"/><symbol fill="none" id="sprite-play-video" viewBox="0 0 40 40"><title>play-video</title><circle cx="20" cy="20" r="19" fill="#fff" stroke="#E77E42" stroke-width="2"/><path d="M15 29.375v-18.75L28.125 20 15 29.375Z" fill="#E77E42"/></symbol><use fill="none" xlink:href="#sprite-play-video" y="784" width="40" height="40"/><symbol fill="none" id="sprite-plus-input" viewBox="0 0 17 17"><title>plus-input</title><path d="M9 8h8v1H9v8H8V9H0V8h8V0h1v8Z" fill="currentColor"/></symbol><use fill="none" xlink:href="#sprite-plus-input" y="824" width="17" height="17"/><symbol fill="none" id="sprite-presence" viewBox="0 0 24 24"><title>presence</title><circle cx="12" cy="12" r="12" fill="#F4F5F8"/></symbol><use fill="none" xlink:href="#sprite-presence" y="841" width="24" height="24"/><symbol fill="none" id="sprite-price-icon-info" viewBox="0 0 14 14"><title>price-icon-info</title><path d="M7 13.667A6.667 6.667 0 1 1 7 .334a6.667 6.667 0 0 1 0 13.333Zm0-1.334A5.333 5.333 0 1 0 7 1.667a5.333 5.333 0 0 0 0 10.666ZM6.333 9h1.334v1.333H6.334V9Zm1.334-1.097v.43H6.334v-1A.667.667 0 0 1 7 6.667a1 1 0 1 0-.98-1.196l-1.308-.262a2.334 2.334 0 1 1 2.955 2.694Z" fill="#7B94B0"/></symbol><use fill="none" xlink:href="#sprite-price-icon-info" y="865" width="14" height="14"/><symbol fill="none" id="sprite-price-icon" viewBox="0 0 20 20"><title>price-icon</title><rect width="20" height="20" rx="10" fill="#E95471"/><path d="M10.31 14.626h1.703l-2.196 2.196L10.995 18l4.226-4.225-.027-.027.026-.026-4.218-4.22-1.178 1.179 2.283 2.282H10.31a3.652 3.652 0 0 1-3.647-3.646 3.658 3.658 0 0 1 3.647-3.654 3.652 3.652 0 0 1 3.646 3.647h1.664A5.316 5.316 0 0 0 10.31 4 5.316 5.316 0 0 0 5 9.31c0 2.928 2.382 5.316 5.31 5.316Z" fill="#fff"/></symbol><use fill="none" xlink:href="#sprite-price-icon" y="879" width="20" height="20"/><symbol fill="none" id="sprite-search-icon" viewBox="0 0 32 32"><title>search-icon</title><circle cx="14" cy="14" r="10"/><path d="M21.414 21 28 27.586"/></symbol><use fill="none" xlink:href="#sprite-search-icon" y="899" width="32" height="32"/><symbol fill="none" id="sprite-wezom-logo" viewBox="0 0 114 41"><title>wezom-logo</title><g clip-path="url(#a)" fill-rule="evenodd" clip-rule="evenodd" fill="currentColor"><path d="M111.763 2.453a7.437 7.437 0 0 0-10.488 0L76.385 27.79a7.86 7.86 0 0 0 0 10.933 7.412 7.412 0 0 0 5.33 2.269 7.396 7.396 0 0 0 5.332-2.269l24.716-25.3a7.896 7.896 0 0 0 0-10.969Z"/><path d="M51.704 2.453A7.445 7.445 0 0 1 57.034.2a7.43 7.43 0 0 1 5.332 2.253L87.082 27.79a7.86 7.86 0 0 1 0 10.933 7.41 7.41 0 0 1-5.331 2.269 7.395 7.395 0 0 1-5.332-2.269l-24.715-25.3a7.86 7.86 0 0 1 0-10.969Z"/><path d="M62.401 2.453A7.41 7.41 0 0 0 57.07.185a7.396 7.396 0 0 0-5.331 2.268L27.023 27.789a7.86 7.86 0 0 0 0 10.933 7.445 7.445 0 0 0 5.331 2.253 7.43 7.43 0 0 0 5.331-2.253l24.716-25.336a7.86 7.86 0 0 0 0-10.933Z"/><path d="M2.202 2.278A7.446 7.446 0 0 1 7.534.025a7.43 7.43 0 0 1 5.33 2.253L37.58 27.614a7.86 7.86 0 0 1 0 10.933 7.445 7.445 0 0 1-5.33 2.253 7.43 7.43 0 0 1-5.332-2.253L2.202 13.211a7.86 7.86 0 0 1 0-10.933Z"/></g><defs><clipPath id="a"><path fill="#fff" d="M0 0h114v41H0z"/></clipPath></defs></symbol><use fill="none" xlink:href="#sprite-wezom-logo" y="931" width="114" height="41"/></svg>