<svg width="17" height="14" viewBox="0 0 17 14" fill="none" xmlns="http://www.w3.org/2000/svg">
<path d="M16.9987 1.64083C16.362 1.92246 15.6868 2.10742 14.9954 2.18959C15.7241 1.75378 16.2695 1.06789 16.53 0.259745C15.8461 0.666731 15.0964 0.951955 14.3149 1.10624C13.79 0.544618 13.0942 0.172146 12.3358 0.0467323C11.5774 -0.0786814 10.7988 0.0499901 10.121 0.412743C9.44324 0.775496 8.90432 1.35201 8.58801 2.05265C8.2717 2.75329 8.19573 3.5388 8.37191 4.28707C6.98508 4.21756 5.62837 3.85717 4.38986 3.22929C3.15135 2.60142 2.05873 1.7201 1.18294 0.642546C0.872938 1.17501 0.710032 1.78029 0.710903 2.39642C0.710903 3.6057 1.32639 4.67404 2.26212 5.29953C1.70836 5.2821 1.16679 5.13255 0.682547 4.86336V4.90672C0.682715 5.71211 0.961407 6.49265 1.47137 7.11601C1.98134 7.73936 2.69119 8.16718 3.48058 8.32691C2.96652 8.46621 2.42751 8.48675 1.90434 8.38695C2.1269 9.08019 2.56069 9.68647 3.14497 10.1209C3.72925 10.5553 4.43476 10.7962 5.16273 10.8097C4.43923 11.3779 3.61083 11.7979 2.72488 12.0458C1.83894 12.2937 0.912834 12.3645 -0.000488281 12.2542C1.59384 13.2795 3.4498 13.8238 5.34537 13.822C11.7612 13.822 15.2698 8.50705 15.2698 3.8976C15.2698 3.74748 15.2657 3.5957 15.259 3.44725C15.9419 2.95366 16.5313 2.34223 16.9995 1.64166L16.9987 1.64083Z" fill="white"/>
</svg>
