<svg width="27" height="24" viewBox="0 0 27 24" fill="none" xmlns="http://www.w3.org/2000/svg">
<path d="M1.33335 0H25.3333C25.687 0 26.0261 0.140476 26.2762 0.390524C26.5262 0.640573 26.6667 0.979711 26.6667 1.33333V22.6667C26.6667 23.0203 26.5262 23.3594 26.2762 23.6095C26.0261 23.8595 25.687 24 25.3333 24H1.33335C0.979727 24 0.640588 23.8595 0.390539 23.6095C0.140491 23.3594 1.52588e-05 23.0203 1.52588e-05 22.6667V1.33333C1.52588e-05 0.979711 0.140491 0.640573 0.390539 0.390524C0.640588 0.140476 0.979727 0 1.33335 0ZM24 5.65067L13.4293 15.1173L2.66668 5.62133V21.3333H24V5.65067ZM3.34802 2.66667L13.4147 11.5493L23.336 2.66667H3.34802Z"  fill="currentColor"/>
</svg>
