<svg width="20" height="22" viewBox="0 0 20 22" fill="none" xmlns="http://www.w3.org/2000/svg">
<path d="M0.962891 4.92188C0.962891 3.70052 1.35938 2.71159 2.15234 1.95508C2.94531 1.18945 3.98438 0.806641 5.26953 0.806641C6.57292 0.806641 7.62109 1.1849 8.41406 1.94141C9.20703 2.6888 9.60352 3.70508 9.60352 4.99023V5.97461C9.60352 7.20508 9.20703 8.19401 8.41406 8.94141C7.62109 9.6888 6.58203 10.0625 5.29688 10.0625C4.0026 10.0625 2.95443 9.6888 2.15234 8.94141C1.35938 8.1849 0.962891 7.16862 0.962891 5.89258V4.92188ZM3.58789 5.97461C3.58789 6.52148 3.74284 6.96354 4.05273 7.30078C4.37174 7.62891 4.78646 7.79297 5.29688 7.79297C5.80729 7.79297 6.21289 7.62435 6.51367 7.28711C6.81445 6.94987 6.96484 6.4987 6.96484 5.93359V4.92188C6.96484 4.375 6.81445 3.93294 6.51367 3.5957C6.21289 3.25846 5.79818 3.08984 5.26953 3.08984C4.76823 3.08984 4.36263 3.25846 4.05273 3.5957C3.74284 3.92383 3.58789 4.38411 3.58789 4.97656V5.97461ZM10.4785 16.1191C10.4785 14.8887 10.8796 13.8997 11.6816 13.1523C12.4837 12.3958 13.5228 12.0176 14.7988 12.0176C16.0931 12.0176 17.1367 12.3913 17.9297 13.1387C18.7318 13.877 19.1328 14.8978 19.1328 16.2012V17.1855C19.1328 18.4069 18.7409 19.3958 17.957 20.1523C17.1732 20.8997 16.1296 21.2734 14.8262 21.2734C13.5137 21.2734 12.4609 20.8952 11.668 20.1387C10.875 19.3822 10.4785 18.3796 10.4785 17.1309V16.1191ZM13.1035 17.1855C13.1035 17.6868 13.2676 18.1152 13.5957 18.4707C13.9238 18.8262 14.334 19.0039 14.8262 19.0039C15.9382 19.0039 16.4941 18.3887 16.4941 17.1582V16.1191C16.4941 15.5723 16.3392 15.1348 16.0293 14.8066C15.7194 14.4694 15.3092 14.3008 14.7988 14.3008C14.2884 14.3008 13.8783 14.4694 13.5684 14.8066C13.2585 15.1348 13.1035 15.5859 13.1035 16.1602V17.1855ZM6.07617 19.5098L4.14844 18.4707L13.8691 2.91211L15.7969 3.95117L6.07617 19.5098Z" fill="currentColor"/>
</svg>
