<svg width="32" height="32" viewBox="0 0 32 32" fill="none" xmlns="http://www.w3.org/2000/svg">
<mask id="mask0_1357_327" style="mask-type:alpha" maskUnits="userSpaceOnUse" x="0" y="0" width="32" height="32">
<circle cx="16" cy="16" r="16" fill="#FFAF00"/>
</mask>
<g mask="url(#mask0_1357_327)">
<path d="M22.2188 13.8628C24.3565 13.8628 28.8909 17.1008 26.235 21.5713C26.0131 21.9449 25.1922 20.3658 23.6439 20.211C22.4779 20.0944 22.5616 20.3859 21.6358 20.4701C20.8346 20.5429 20.038 19.6928 19.6925 19.3041" stroke="currentColor" stroke-width="1.14286" stroke-linecap="round"/>
<path d="M5.31165 29.086C6.08897 21.5062 9.39262 13.086 9.39262 13.086C9.39262 13.086 6.64596 9.2879 9.45739 5.44231C9.51289 5.36641 12.081 10.07 16.0647 10.4949C17.8784 10.6884 21.0987 10.7249 21.8299 11.1427C23.1902 11.92 22.2185 13.4963 21.8299 14.1225M20.7286 31.4828L19.1092 23.58M17.5546 23.2561C20.0161 24.163 22.944 22.3362 23.255 19.9524" stroke="currentColor" stroke-width="1.14286"/>
<ellipse cx="15.2224" cy="16.2596" rx="0.712551" ry="1.03644" fill="currentColor"/>
</g>
</svg>
