<svg width="57" height="55" viewBox="0 0 57 55" fill="none" xmlns="http://www.w3.org/2000/svg">
<g opacity="0.5" clip-path="url(#clip0_1:694)">
<path d="M30.9736 16.0755L30.9736 16.0755L30.9727 16.0793C30.5372 17.9041 29.6773 19.4352 28.6884 20.4256C27.6843 21.4313 26.6825 21.765 25.8865 21.5873C25.092 21.4099 24.3508 20.6988 23.9061 19.3929C23.4667 18.1026 23.3827 16.378 23.8176 14.5541C24.2683 12.6989 25.1293 11.1689 26.1123 10.1869C27.1082 9.19211 28.1031 8.86522 28.9043 9.04412C29.7064 9.22322 30.4515 9.92966 30.8967 11.2221C31.3378 12.5023 31.4229 14.2248 30.9736 16.0755Z" stroke="#8D58E3" stroke-width="2"/>
<path d="M18.9099 18.7439C18.8744 20.5278 18.3851 22.1152 17.6671 23.2274C16.9393 24.3548 16.0766 24.8646 15.2968 24.8667C14.5268 24.8688 13.7093 24.3791 13.043 23.2779C12.3822 22.1858 11.961 20.6123 11.9966 18.8252C12.0322 17.0413 12.5214 15.4539 13.2395 14.3417C13.9673 13.2143 14.83 12.7045 15.6098 12.7024C16.3798 12.7003 17.1973 13.19 17.8636 14.2912C18.5244 15.3833 18.9456 16.9568 18.9099 18.7439Z" stroke="#8D58E3" stroke-width="2"/>
<path d="M9.92796 38.4389L9.92716 38.438C9.06732 37.4421 9.05694 36.1124 10.0141 34.4259C10.9752 32.7325 12.8088 30.9242 15.0963 29.3738C17.3732 27.8307 20.0172 26.5993 22.5207 26.0064C25.048 25.4078 27.2828 25.4924 28.8732 26.3704C30.449 27.2403 31.7053 29.0811 32.5428 31.5383C33.372 33.9714 33.7389 36.8653 33.6463 39.6143C33.5533 42.3764 33.0001 44.8906 32.0768 46.6036C31.1587 48.3068 30.0235 49.0072 28.7068 48.8042L28.7029 48.8036C27.2771 48.5895 26.4296 48.2039 25.8696 47.7788C25.3099 47.3538 24.9553 46.8288 24.6027 46.17C24.51 45.9968 24.4178 45.8127 24.3216 45.6209C23.6929 44.3668 22.8967 42.7786 20.723 41.7081L20.7226 41.7079L20.722 41.7076L20.7215 41.7073L20.7209 41.707L20.7203 41.7067L20.7197 41.7064L20.7192 41.706L20.7186 41.7057L20.718 41.7054L20.7174 41.7051L20.7169 41.7048L20.7163 41.7045L20.7157 41.7042L20.7152 41.7038L20.7146 41.7035L20.7141 41.7032L20.7135 41.7029L20.7129 41.7026L20.7124 41.7023L20.7118 41.702L20.7112 41.7017L20.7107 41.7014L20.7101 41.7011L20.7096 41.7007L20.709 41.7004L20.7085 41.7001L20.7079 41.6998L20.7074 41.6995L20.7068 41.6992L20.7063 41.6989L20.7057 41.6986L20.7052 41.6983L20.7046 41.698L20.7041 41.6977L20.7035 41.6974L20.703 41.6971L20.7024 41.6968L20.7019 41.6965L20.7013 41.6962L20.7008 41.6959L20.7003 41.6956L20.6997 41.6953L20.6992 41.695L20.6986 41.6947L20.6981 41.6944L20.6976 41.6941L20.697 41.6938L20.6965 41.6935L20.696 41.6932L20.6954 41.6929L20.6949 41.6926L20.6944 41.6923L20.6938 41.6921L20.6933 41.6918L20.6928 41.6915L20.6922 41.6912L20.6917 41.6909L20.6912 41.6906L20.6907 41.6903L20.6901 41.69L20.6896 41.6897L20.6891 41.6894L20.6886 41.6891L20.688 41.6889L20.6875 41.6886L20.687 41.6883L20.6865 41.688L20.686 41.6877L20.6854 41.6874L20.6849 41.6871L20.6844 41.6868L20.6839 41.6866L20.6834 41.6863L20.6828 41.686L20.6823 41.6857L20.6818 41.6854L20.6813 41.6851L20.6808 41.6849L20.6803 41.6846L20.6798 41.6843L20.6793 41.684L20.6787 41.6837L20.6782 41.6834L20.6777 41.6832L20.6772 41.6829L20.6767 41.6826L20.6762 41.6823L20.6757 41.682L20.6752 41.6818L20.6747 41.6815L20.6742 41.6812L20.6737 41.6809L20.6732 41.6807L20.6727 41.6804L20.6722 41.6801L20.6717 41.6798L20.6712 41.6795L20.6707 41.6793L20.6702 41.679L20.6697 41.6787L20.6692 41.6784L20.6687 41.6782L20.6682 41.6779L20.6677 41.6776L20.6672 41.6773L20.6667 41.6771L20.6662 41.6768L20.6657 41.6765L20.6652 41.6763L20.6647 41.676L20.6642 41.6757L20.6637 41.6754L20.6632 41.6752L20.6627 41.6749L20.6622 41.6746L20.6618 41.6744L20.6613 41.6741L20.6608 41.6738L20.6603 41.6735L20.6598 41.6733L20.6593 41.673L20.6588 41.6727L20.6583 41.6725L20.6579 41.6722L20.6574 41.6719L20.6569 41.6717L20.6564 41.6714L20.6559 41.6711L20.6554 41.6709L20.6549 41.6706L20.6545 41.6703L20.654 41.6701L20.6535 41.6698L20.653 41.6695L20.6525 41.6693L20.652 41.669L20.6516 41.6687L20.6511 41.6685L20.6506 41.6682L20.6501 41.6679L20.6496 41.6677L20.6492 41.6674L20.6487 41.6671L20.6482 41.6669L20.6477 41.6666L20.6473 41.6663L20.6468 41.6661L20.6463 41.6658L20.6458 41.6656L20.6453 41.6653L20.6449 41.665L20.6444 41.6648L20.6439 41.6645L20.6434 41.6642L20.643 41.664L20.6425 41.6637L20.642 41.6635L20.6415 41.6632L20.6411 41.6629L20.6406 41.6627L20.6401 41.6624L20.6397 41.6621L20.6392 41.6619L20.6387 41.6616L20.6382 41.6614L20.6378 41.6611L20.6373 41.6608L20.6368 41.6606L20.6364 41.6603L20.6359 41.6601L20.6354 41.6598L20.6349 41.6595L20.6345 41.6593L20.634 41.659L20.6335 41.6588L20.6331 41.6585L20.6326 41.6583L20.6321 41.658L20.6317 41.6577L20.6312 41.6575L20.6307 41.6572L20.6303 41.657L20.6298 41.6567L20.6293 41.6564L20.6289 41.6562L20.6284 41.6559L20.6279 41.6557L20.6275 41.6554L20.627 41.6552L20.6265 41.6549L20.6261 41.6546L20.6256 41.6544L20.6251 41.6541L20.6247 41.6539L20.6242 41.6536L20.6237 41.6534L20.6233 41.6531L20.6228 41.6528L20.6223 41.6526L20.6219 41.6523L20.6214 41.6521L20.6209 41.6518L20.6205 41.6516L20.62 41.6513L20.6195 41.651L20.6191 41.6508L20.6186 41.6505L20.6181 41.6503L20.6177 41.65L20.6172 41.6498L20.6167 41.6495L20.6163 41.6492L20.6158 41.649L20.6154 41.6487L20.6149 41.6485L20.6144 41.6482L20.614 41.648L20.6135 41.6477L20.613 41.6475L20.6126 41.6472L20.6121 41.6469L20.6116 41.6467L20.6112 41.6464L20.6107 41.6462L20.6102 41.6459L20.6098 41.6457L20.6093 41.6454L20.6089 41.6451L20.6084 41.6449L20.6079 41.6446L20.6075 41.6444L20.607 41.6441L20.6065 41.6439L20.6061 41.6436L20.6056 41.6433L20.6051 41.6431L20.6047 41.6428L20.6042 41.6426L20.6037 41.6423L20.6033 41.6421L20.6028 41.6418L20.6023 41.6416L20.6019 41.6413L20.6014 41.641L20.601 41.6408L20.6005 41.6405L20.6 41.6403L20.5996 41.64L20.5991 41.6398L20.5986 41.6395L20.5982 41.6392L20.5977 41.639L20.5972 41.6387L20.5968 41.6385L20.5963 41.6382L20.5958 41.638L20.5954 41.6377L20.5949 41.6374L20.5944 41.6372L20.594 41.6369L20.5935 41.6367L20.593 41.6364L20.5925 41.6361L20.5921 41.6359L20.5916 41.6356L20.5911 41.6354L20.5907 41.6351L20.5902 41.6348L20.5897 41.6346L20.5893 41.6343L20.5888 41.6341L20.5883 41.6338L20.5879 41.6336L20.5874 41.6333L20.5869 41.633L20.5864 41.6328L20.586 41.6325L20.5855 41.6323L20.585 41.632L20.5846 41.6317L20.5841 41.6315L20.5836 41.6312L20.5831 41.6309L20.5827 41.6307L20.5822 41.6304L20.5817 41.6302L20.5812 41.6299L20.5808 41.6296L20.5803 41.6294L20.5798 41.6291L20.5793 41.6289L20.5789 41.6286L20.5784 41.6283L20.5779 41.6281L20.5774 41.6278L20.577 41.6275L20.5765 41.6273L20.576 41.627L20.5755 41.6267L20.575 41.6265L20.5746 41.6262L20.5741 41.6259L20.5736 41.6257L20.5731 41.6254L20.5726 41.6252L20.5722 41.6249L20.5717 41.6246L20.5712 41.6244L20.5707 41.6241L20.5702 41.6238L20.5698 41.6236L20.5693 41.6233L20.5688 41.623L20.5683 41.6228L20.5678 41.6225L20.5673 41.6222L20.5668 41.622L20.5664 41.6217L20.5659 41.6214L20.5654 41.6211L20.5649 41.6209L20.5644 41.6206L20.5639 41.6203L20.5634 41.6201L20.5629 41.6198L20.5625 41.6195L20.562 41.6193L20.5615 41.619L20.561 41.6187L20.5605 41.6184L20.56 41.6182L20.5595 41.6179L20.559 41.6176L20.5585 41.6174L20.558 41.6171L20.5575 41.6168L20.557 41.6165L20.5565 41.6163L20.556 41.616L20.5555 41.6157L20.555 41.6154L20.5545 41.6152L20.554 41.6149L20.5535 41.6146L20.553 41.6143L20.5525 41.6141L20.552 41.6138L20.5515 41.6135L20.551 41.6132L20.5505 41.6129L20.55 41.6127L20.5495 41.6124L20.549 41.6121L20.5485 41.6118L20.548 41.6116L20.5475 41.6113L20.547 41.611L20.5465 41.6107L20.546 41.6104L20.5455 41.6101L20.545 41.6099L20.5444 41.6096L20.5439 41.6093L20.5434 41.609L20.5429 41.6087L20.5424 41.6085L20.5419 41.6082L20.5414 41.6079L20.5408 41.6076L20.5403 41.6073L20.5398 41.607L20.5393 41.6067L20.5388 41.6065L20.5383 41.6062L20.5377 41.6059L20.5372 41.6056L20.5367 41.6053L20.5362 41.605L20.5357 41.6047L20.5351 41.6044L20.5346 41.6042L20.5341 41.6039L20.5336 41.6036L20.533 41.6033L20.5325 41.603L20.532 41.6027L20.5314 41.6024L20.5309 41.6021L20.5304 41.6018L20.5299 41.6015L20.5293 41.6012L20.5288 41.6009L20.5283 41.6006L20.5277 41.6004L20.5272 41.6001L20.5266 41.5998L20.5261 41.5995L20.5256 41.5992L20.525 41.5989L20.5245 41.5986L20.524 41.5983L20.5234 41.598L20.5229 41.5977L20.5223 41.5974L20.5218 41.5971L20.5212 41.5968L20.5207 41.5965L20.5201 41.5962L20.5196 41.5959L20.5191 41.5956L20.5185 41.5953L20.518 41.595L20.5174 41.5947L20.5169 41.5944L20.5163 41.594L20.5157 41.5937L20.5152 41.5934L20.5146 41.5931L20.5141 41.5928L20.5135 41.5925L20.513 41.5922L20.5124 41.5919L20.5118 41.5916L20.5113 41.5913L20.5107 41.591L20.5102 41.5907L20.5096 41.5903L20.509 41.59L20.5085 41.5897L20.5079 41.5894L20.5073 41.5891L20.5068 41.5888L20.5062 41.5885L20.5056 41.5882L20.505 41.5878L20.5045 41.5875L20.5039 41.5872L20.5033 41.5869L20.5028 41.5866L20.5022 41.5863L20.5016 41.5859L20.501 41.5856L20.5004 41.5853L20.4999 41.585L20.4993 41.5847L20.4987 41.5843L20.4981 41.584L20.4975 41.5837L20.4969 41.5834L20.4963 41.583L20.4958 41.5827L20.4952 41.5824L20.4946 41.5821L20.494 41.5817L20.4934 41.5814L20.4928 41.5811L20.4922 41.5807L20.4916 41.5804L20.491 41.5801L20.4904 41.5798L20.4898 41.5794L20.4892 41.5791L20.4886 41.5788L20.488 41.5784L20.4874 41.5781L20.4868 41.5778L20.4862 41.5774L20.4856 41.5771L20.485 41.5768L20.4844 41.5764L20.4838 41.5761L20.4831 41.5757L20.4825 41.5754L20.4819 41.5751L20.4813 41.5747L20.4807 41.5744L20.4801 41.574L20.4794 41.5737L20.4788 41.5734L20.4782 41.573L20.4776 41.5727L20.477 41.5723L20.4764 41.572L20.4758 41.5717L20.4751 41.5713L20.4745 41.571L20.4739 41.5707L20.4733 41.5703L20.4727 41.57L20.4721 41.5697L20.4715 41.5693L20.4709 41.569L20.4703 41.5687L20.4697 41.5683L20.4691 41.568L20.4685 41.5677L20.4679 41.5673L20.4673 41.567L20.4667 41.5667L20.4661 41.5664L20.4655 41.566L20.465 41.5657L20.4644 41.5654L20.4638 41.5651L20.4632 41.5647L20.4626 41.5644L20.462 41.5641L20.4614 41.5638L20.4608 41.5634L20.4603 41.5631L20.4597 41.5628L20.4591 41.5625L20.4585 41.5622L20.4579 41.5618L20.4574 41.5615L20.4568 41.5612L20.4562 41.5609L20.4556 41.5606L20.4551 41.5602L20.4545 41.5599L20.4539 41.5596L20.4534 41.5593L20.4528 41.559L20.4522 41.5587L20.4517 41.5584L20.4511 41.5581L20.4505 41.5577L20.45 41.5574L20.4494 41.5571L20.4488 41.5568L20.4483 41.5565L20.4477 41.5562L20.4472 41.5559L20.4466 41.5556L20.446 41.5553L20.4455 41.555L20.4449 41.5546L20.4444 41.5543L20.4438 41.554L20.4433 41.5537L20.4427 41.5534L20.4422 41.5531L20.4416 41.5528L20.4411 41.5525L20.4405 41.5522L20.44 41.5519L20.4394 41.5516L20.4389 41.5513L20.4383 41.551L20.4378 41.5507L20.4372 41.5504L20.4367 41.5501L20.4362 41.5498L20.4356 41.5495L20.4351 41.5492L20.4345 41.5489L20.434 41.5486L20.4335 41.5483L20.4329 41.548L20.4324 41.5477L20.4319 41.5474L20.4313 41.5471L20.4308 41.5468L20.4303 41.5466L20.4297 41.5463L20.4292 41.546L20.4287 41.5457L20.4281 41.5454L20.4276 41.5451L20.4271 41.5448L20.4266 41.5445L20.426 41.5442L20.4255 41.5439L20.425 41.5436L20.4245 41.5434L20.4239 41.5431L20.4234 41.5428L20.4229 41.5425L20.4224 41.5422L20.4219 41.5419L20.4213 41.5416L20.4208 41.5413L20.4203 41.5411L20.4198 41.5408L20.4193 41.5405L20.4188 41.5402L20.4182 41.5399L20.4177 41.5396L20.4172 41.5393L20.4167 41.5391L20.4162 41.5388L20.4157 41.5385L20.4152 41.5382L20.4147 41.5379L20.4141 41.5377L20.4136 41.5374L20.4131 41.5371L20.4126 41.5368L20.4121 41.5365L20.4116 41.5363L20.4111 41.536L20.4106 41.5357L20.4101 41.5354L20.4096 41.5351L20.4091 41.5349L20.4086 41.5346L20.4081 41.5343L20.4076 41.534L20.4071 41.5338L20.4066 41.5335L20.4061 41.5332L20.4056 41.5329L20.4051 41.5327L20.4046 41.5324L20.4041 41.5321L20.4036 41.5318L20.4031 41.5316L20.4026 41.5313L20.4021 41.531L20.4016 41.5307L20.4011 41.5305L20.4006 41.5302L20.4001 41.5299L20.3996 41.5296L20.3991 41.5294L20.3987 41.5291L20.3982 41.5288L20.3977 41.5286L20.3972 41.5283L20.3967 41.528L20.3962 41.5277L20.3957 41.5275L20.3952 41.5272L20.3947 41.5269L20.3942 41.5267L20.3938 41.5264L20.3933 41.5261L20.3928 41.5259L20.3923 41.5256L20.3918 41.5253L20.3913 41.5251L20.3909 41.5248L20.3904 41.5245L20.3899 41.5243L20.3894 41.524L20.3889 41.5237L20.3884 41.5235L20.388 41.5232L20.3875 41.5229L20.387 41.5227L20.3865 41.5224L20.386 41.5221L20.3856 41.5219L20.3851 41.5216L20.3846 41.5213L20.3841 41.5211L20.3836 41.5208L20.3832 41.5206L20.3827 41.5203L20.3822 41.52L20.3817 41.5198L20.3813 41.5195L20.3808 41.5192L20.3803 41.519L20.3798 41.5187L20.3794 41.5184L20.3789 41.5182L20.3784 41.5179L20.3779 41.5177L20.3775 41.5174L20.377 41.5171L20.3765 41.5169L20.376 41.5166L20.3756 41.5164L20.3751 41.5161L20.3746 41.5158L20.3741 41.5156L20.3737 41.5153L20.3732 41.5151L20.3727 41.5148L20.3723 41.5145L20.3718 41.5143L20.3713 41.514L20.3709 41.5138L20.3704 41.5135L20.3699 41.5132L20.3694 41.513L20.369 41.5127L20.3685 41.5125L20.368 41.5122L20.3676 41.5119L20.3671 41.5117L20.3666 41.5114L20.3662 41.5112L20.3657 41.5109L20.3652 41.5107L20.3648 41.5104L20.3643 41.5101L20.3638 41.5099L20.3634 41.5096L20.3629 41.5094L20.3624 41.5091L20.362 41.5088L20.3615 41.5086L20.361 41.5083L20.3606 41.5081L20.3601 41.5078L20.3596 41.5076L20.3592 41.5073L20.3587 41.507L20.3582 41.5068L20.3578 41.5065L20.3573 41.5063L20.3568 41.506L20.3564 41.5058L20.3559 41.5055L20.3554 41.5053L20.355 41.505L20.3545 41.5047L20.3541 41.5045L20.3536 41.5042L20.3531 41.504L20.3527 41.5037L20.3522 41.5035L20.3517 41.5032L20.3513 41.5029L20.3508 41.5027L20.3503 41.5024L20.3499 41.5022L20.3494 41.5019L20.3489 41.5017L20.3485 41.5014L20.348 41.5011L20.3476 41.5009L20.3471 41.5006L20.3466 41.5004L20.3462 41.5001L20.3457 41.4999L20.3452 41.4996L20.3448 41.4994L20.3443 41.4991L20.3438 41.4988L20.3434 41.4986L20.3429 41.4983L20.3424 41.4981L20.342 41.4978L20.3415 41.4976L20.341 41.4973L20.3406 41.497L20.3401 41.4968L20.3397 41.4965L20.3392 41.4963L20.3387 41.496L20.3383 41.4958L20.3378 41.4955L20.3373 41.4952L20.3369 41.495L20.3364 41.4947L20.3359 41.4945L20.3355 41.4942L20.335 41.494L20.3345 41.4937L20.3341 41.4934L20.3336 41.4932L20.3331 41.4929L20.3327 41.4927L20.3322 41.4924L20.3317 41.4922L20.3313 41.4919L20.3308 41.4916L20.3303 41.4914L20.3299 41.4911L20.3294 41.4909L20.3289 41.4906L20.3285 41.4904L20.328 41.4901L20.3275 41.4898L20.3271 41.4896L20.3266 41.4893L20.3261 41.4891L20.3256 41.4888L20.3252 41.4885L20.3247 41.4883L20.3242 41.488L20.3238 41.4878L20.3233 41.4875L20.3228 41.4872L20.3224 41.487L20.3219 41.4867L20.3214 41.4865L20.3209 41.4862L20.3205 41.4859L20.32 41.4857L20.3195 41.4854L20.319 41.4852L20.3186 41.4849L20.3181 41.4846L20.3176 41.4844L20.3172 41.4841L20.3167 41.4838L20.3162 41.4836L20.3157 41.4833L20.3152 41.4831L20.3148 41.4828L20.3143 41.4825L20.3138 41.4823L20.3133 41.482L20.3129 41.4817L20.3124 41.4815L20.3119 41.4812L20.3114 41.481L20.311 41.4807L20.3105 41.4804L20.31 41.4802L20.3095 41.4799L20.309 41.4796L20.3086 41.4794L20.3081 41.4791L20.3076 41.4788L20.3071 41.4786L20.3066 41.4783L20.3061 41.478L20.3057 41.4778L20.3052 41.4775L20.3047 41.4772L20.3042 41.477L20.3037 41.4767L20.3032 41.4764L20.3028 41.4762L20.3023 41.4759L20.3018 41.4756L20.3013 41.4754L20.3008 41.4751L20.3003 41.4748L20.2998 41.4745L20.2993 41.4743L20.2989 41.474L20.2984 41.4737L20.2979 41.4735L20.2974 41.4732L20.2969 41.4729L20.2964 41.4727L20.2959 41.4724L20.2954 41.4721L20.2949 41.4718L20.2944 41.4716L20.2939 41.4713L20.2934 41.471L20.2929 41.4707L20.2924 41.4705L20.2919 41.4702L20.2914 41.4699L20.2909 41.4696L20.2905 41.4694L20.29 41.4691L20.2895 41.4688L20.289 41.4685L20.2885 41.4683L20.2879 41.468L20.2874 41.4677L20.2869 41.4674L20.2864 41.4672L20.2859 41.4669L20.2854 41.4666L20.2849 41.4663L20.2844 41.466L20.2839 41.4658L20.2834 41.4655L20.2829 41.4652L20.2824 41.4649L20.2819 41.4646L20.2814 41.4644L20.2809 41.4641L20.2804 41.4638L20.2798 41.4635L20.2793 41.4632L20.2788 41.4629L20.2783 41.4627L20.2778 41.4624L20.2773 41.4621L20.2768 41.4618L20.2762 41.4615L20.2757 41.4612L20.2752 41.461L20.2747 41.4607L20.2742 41.4604L20.2737 41.4601L20.2731 41.4598L20.2726 41.4595L20.2721 41.4592L20.2716 41.4589L20.271 41.4587L20.2705 41.4584L20.27 41.4581L20.2695 41.4578L20.2689 41.4575L20.2684 41.4572L20.2679 41.4569L20.2674 41.4566L20.2668 41.4563L20.2663 41.456L20.2658 41.4557L20.2652 41.4554L20.2647 41.4552L20.2642 41.4549L20.2636 41.4546L20.2631 41.4543L20.2626 41.454L20.262 41.4537L20.2615 41.4534L20.2609 41.4531L20.2604 41.4528L20.2599 41.4525L20.2593 41.4522L20.2588 41.4519L20.2582 41.4516L20.2577 41.4513L20.2572 41.451L20.2566 41.4507L20.2561 41.4504L20.2555 41.4501L20.255 41.4498L20.2544 41.4495L20.2539 41.4492L20.2533 41.4489L20.2528 41.4486L20.2522 41.4483L20.2517 41.448L20.2511 41.4476L20.2505 41.4473L20.25 41.447L20.2494 41.4467L20.2489 41.4464L20.2483 41.4461L20.2478 41.4458L20.2472 41.4455L20.2466 41.4452L20.2461 41.4449L20.2455 41.4446L20.2449 41.4442L20.2444 41.4439L20.2438 41.4436L20.2432 41.4433L20.2427 41.443L20.2421 41.4427L20.2415 41.4424L20.241 41.442L20.2404 41.4417L20.2398 41.4414L20.2392 41.4411L20.2387 41.4408L20.2381 41.4405L20.2375 41.4401L20.2369 41.4398L20.2369 41.4398C18.1476 40.1567 16.3679 40.3241 14.9602 40.4564C14.7485 40.4763 14.5452 40.4954 14.3505 40.5087C13.6005 40.5598 12.9651 40.5387 12.3059 40.2909C11.6468 40.0431 10.8688 39.5313 9.92796 38.4389Z" stroke="#8D58E3" stroke-width="2"/>
<path d="M36.463 19.1102L36.463 19.1102L36.4657 19.1074C37.7924 17.7411 39.2953 16.8953 40.6137 16.5863C41.9446 16.2744 42.9394 16.5285 43.5184 17.1118C44.0967 17.6945 44.3502 18.7105 44.039 20.0833C43.7318 21.4389 42.8954 22.9834 41.5649 24.3536C40.2383 25.72 38.7354 26.5658 37.417 26.8747C36.0861 27.1866 35.0912 26.9325 34.5123 26.3492C33.9377 25.7703 33.6863 24.7447 34.0023 23.3592C34.3134 21.9946 35.1508 20.4511 36.463 19.1102Z" stroke="#8D58E3" stroke-width="2"/>
<path d="M44.9678 29.2306C46.2401 29.2135 47.0892 29.6488 47.5034 30.3058C47.8959 30.9549 47.9221 31.9616 47.3606 33.1838C46.807 34.3889 45.7366 35.6535 44.2507 36.631L44.2507 36.631L44.2448 36.6349C42.7386 37.6413 41.1862 38.1209 39.9188 38.1379C38.6432 38.1551 37.7929 37.7175 37.3799 37.0577C36.9661 36.3967 36.9379 35.395 37.5041 34.1783C38.0626 32.9781 39.1452 31.7182 40.6358 30.7376L40.6358 30.7376L40.6418 30.7336C42.148 29.7272 43.7003 29.2477 44.9678 29.2306Z" stroke="#8D58E3" stroke-width="2"/>
<mask id="path-6-inside-1_1:694" fill="white">
<path d="M47.0901 15.0928C46.826 14.947 45.828 14.2582 44.3832 15.2524C44.7656 15.8081 45.8655 17.3111 45.8655 17.3111C45.8655 17.3111 46.0371 15.7519 47.0901 15.0928Z"/>
</mask>
<path d="M47.0901 15.0928L48.1513 16.7881L51.0324 14.9846L48.0567 13.3419L47.0901 15.0928ZM44.3832 15.2524L43.2495 13.6048L41.6019 14.7386L42.7357 16.3862L44.3832 15.2524ZM45.8655 17.3111L44.2515 18.4922L47.2905 22.6453L47.8535 17.53L45.8655 17.3111ZM48.0567 13.3419C48.1001 13.3658 47.8335 13.2077 47.5853 13.0951C47.3027 12.9669 46.9236 12.8311 46.4622 12.7652C45.481 12.625 44.3677 12.8353 43.2495 13.6048L45.517 16.9C45.6979 16.7755 45.8092 16.7411 45.8499 16.7312C45.8721 16.7258 45.8847 16.725 45.8891 16.7248C45.8937 16.7246 45.8958 16.7249 45.8966 16.725C45.8984 16.7253 45.9086 16.7268 45.9326 16.7377C45.9448 16.7433 45.9604 16.7511 45.9842 16.7643C45.997 16.7715 46.0103 16.7791 46.0314 16.7913C46.0453 16.7993 46.0856 16.8227 46.1235 16.8437L48.0567 13.3419ZM42.7357 16.3862C42.9434 16.688 43.329 17.2234 43.6485 17.664C43.8113 17.8886 43.9618 18.0954 44.0717 18.246C44.1266 18.3214 44.1714 18.3827 44.2026 18.4254C44.2182 18.4467 44.2303 18.4633 44.2386 18.4746C44.2427 18.4803 44.2459 18.4847 44.2481 18.4876C44.2492 18.4891 44.25 18.4902 44.2506 18.491C44.2508 18.4914 44.2511 18.4917 44.2512 18.4919C44.2513 18.492 44.2513 18.492 44.2514 18.4921C44.2514 18.4921 44.2514 18.4922 44.2514 18.4922C44.2514 18.4922 44.2515 18.4922 45.8655 17.3111C47.4795 16.1301 47.4795 16.1301 47.4795 16.1301C47.4795 16.1301 47.4795 16.1301 47.4795 16.1301C47.4795 16.13 47.4794 16.13 47.4794 16.1299C47.4793 16.1297 47.4791 16.1295 47.4788 16.1291C47.4783 16.1285 47.4776 16.1274 47.4766 16.126C47.4745 16.1233 47.4715 16.1191 47.4675 16.1136C47.4595 16.1027 47.4476 16.0865 47.4324 16.0656C47.4019 16.0239 47.3578 15.9635 47.3036 15.8892C47.1953 15.7407 47.047 15.537 46.887 15.3163C46.561 14.8665 46.2055 14.3725 46.0308 14.1186L42.7357 16.3862ZM45.8655 17.3111C47.8535 17.53 47.8534 17.5306 47.8534 17.5311C47.8533 17.5313 47.8533 17.5319 47.8532 17.5323C47.8531 17.5331 47.8531 17.5338 47.853 17.5345C47.8528 17.536 47.8527 17.5373 47.8525 17.5386C47.8522 17.5411 47.852 17.5433 47.8517 17.5452C47.8513 17.549 47.851 17.5515 47.8508 17.5527C47.8505 17.5553 47.8507 17.553 47.8517 17.5466C47.8537 17.5336 47.8585 17.5048 47.8669 17.4645C47.8843 17.3807 47.9138 17.2645 47.9589 17.1425C48.0681 16.8472 48.1693 16.7768 48.1513 16.7881L46.029 13.3975C44.9579 14.0679 44.4469 15.1067 44.207 15.7558C44.0775 16.106 43.9983 16.4208 43.9507 16.65C43.9265 16.7661 43.9096 16.8643 43.8981 16.9391C43.8924 16.9766 43.8879 17.0085 43.8845 17.0342C43.8829 17.0471 43.8815 17.0584 43.8803 17.0681C43.8797 17.073 43.8792 17.0774 43.8787 17.0814C43.8785 17.0835 43.8783 17.0854 43.8781 17.0872C43.878 17.0881 43.8779 17.089 43.8778 17.0899C43.8777 17.0903 43.8777 17.0909 43.8776 17.0911C43.8776 17.0917 43.8775 17.0923 45.8655 17.3111Z" fill="#8D58E3" mask="url(#path-6-inside-1_1:694)"/>
<mask id="path-8-inside-2_1:694" fill="white">
<path d="M30.2462 7.65497C30.2462 7.65497 29.241 6.47982 29.5072 5.24851C29.2322 5.37231 28.008 5.59241 27.7198 7.36289C28.3646 7.4432 30.2462 7.65497 30.2462 7.65497Z"/>
</mask>
<path d="M30.2462 7.65497L30.0225 9.64242L35.0634 10.2097L31.766 6.35493L30.2462 7.65497ZM29.5072 5.24851L31.4621 5.67121L32.2994 1.79873L28.6865 3.42469L29.5072 5.24851ZM27.7198 7.36289L25.7458 7.04151L25.4121 9.09094L27.4726 9.34756L27.7198 7.36289ZM30.2462 7.65497C31.766 6.35493 31.7664 6.3554 31.7668 6.35588C31.767 6.35603 31.7674 6.3565 31.7676 6.3568C31.7682 6.35741 31.7687 6.35801 31.7692 6.35859C31.7701 6.35975 31.7711 6.36084 31.772 6.36188C31.7737 6.36395 31.7752 6.36577 31.7766 6.36736C31.7792 6.37052 31.781 6.37274 31.7821 6.37403C31.7842 6.37661 31.7833 6.37559 31.7799 6.37125C31.773 6.3624 31.7568 6.34114 31.7348 6.30952C31.689 6.2437 31.6287 6.14813 31.575 6.03783C31.4465 5.77398 31.4648 5.65865 31.4621 5.67121L27.5524 4.82581C27.2835 6.06967 27.6712 7.15758 27.9788 7.78912C28.1431 8.12652 28.3175 8.4017 28.4518 8.5947C28.5199 8.69249 28.5801 8.77267 28.6271 8.83289C28.6507 8.86308 28.6711 8.88852 28.6879 8.90891C28.6962 8.91911 28.7036 8.92808 28.7101 8.93576C28.7133 8.93961 28.7163 8.94314 28.719 8.94635C28.7204 8.94795 28.7217 8.94948 28.7229 8.95092C28.7235 8.95164 28.7241 8.95234 28.7247 8.95303C28.725 8.95337 28.7254 8.95386 28.7255 8.95403C28.726 8.95452 28.7264 8.95501 30.2462 7.65497ZM28.6865 3.42469C28.9855 3.29011 28.0126 3.62728 27.3931 4.10749C26.6055 4.71805 25.9689 5.67124 25.7458 7.04151L29.6938 7.68427C29.7302 7.46058 29.7843 7.35375 29.8062 7.31641C29.827 7.28103 29.8401 7.27174 29.8437 7.2689C29.8523 7.2623 29.872 7.24893 29.9206 7.22872C29.947 7.21775 29.9762 7.2069 30.0295 7.18807C30.0495 7.18098 30.0945 7.16525 30.1329 7.15119C30.1698 7.13768 30.2443 7.11 30.328 7.07233L28.6865 3.42469ZM27.4726 9.34756C27.807 9.38921 28.4493 9.46343 28.9977 9.52611C29.2741 9.55771 29.5302 9.58677 29.7172 9.60793C29.8107 9.61852 29.8869 9.62713 29.9399 9.6331C29.9663 9.63609 29.9869 9.63841 30.001 9.63999C30.008 9.64078 30.0134 9.64139 30.017 9.6418C30.0188 9.642 30.0202 9.64216 30.0211 9.64226C30.0216 9.64231 30.0219 9.64235 30.0222 9.64238C30.0223 9.64239 30.0224 9.6424 30.0224 9.64241C30.0225 9.64241 30.0225 9.64242 30.0225 9.64242C30.0225 9.64242 30.0225 9.64242 30.2462 7.65497C30.4699 5.66752 30.4699 5.66752 30.4699 5.66751C30.4699 5.66751 30.4698 5.66751 30.4698 5.66751C30.4698 5.6675 30.4697 5.66749 30.4696 5.66748C30.4694 5.66746 30.469 5.66742 30.4686 5.66737C30.4677 5.66727 30.4664 5.66712 30.4646 5.66692C30.4611 5.66652 30.4558 5.66593 30.4489 5.66515C30.435 5.66359 30.4146 5.66129 30.3883 5.65832C30.3358 5.6524 30.26 5.64384 30.1671 5.63332C29.9811 5.61226 29.7265 5.58337 29.4519 5.55199C28.8983 5.4887 28.2774 5.41689 27.967 5.37823L27.4726 9.34756Z" fill="#8D58E3" mask="url(#path-8-inside-2_1:694)"/>
<mask id="path-10-inside-3_1:694" fill="white">
<path d="M16.702 11.3422C16.702 11.3422 15.6093 10.3255 15.6879 9.05952C15.4129 9.18332 14.2069 9.6202 14.1882 11.4017C14.8094 11.4 16.702 11.3422 16.702 11.3422Z"/>
</mask>
<path d="M16.702 11.3422L16.7631 13.3413L21.6268 13.1927L18.0644 9.87798L16.702 11.3422ZM15.6879 9.05952L17.6841 9.18352L17.8896 5.87551L14.8672 7.2357L15.6879 9.05952ZM14.1882 11.4017L12.1883 11.3807L12.1671 13.4071L14.1936 13.4017L14.1882 11.4017ZM16.702 11.3422C18.0644 9.87798 18.0648 9.87841 18.0653 9.87884C18.0654 9.87898 18.0659 9.87941 18.0662 9.87969C18.0668 9.88024 18.0674 9.88079 18.0679 9.88132C18.0691 9.88237 18.0702 9.88338 18.0712 9.88433C18.0732 9.88623 18.075 9.88793 18.0765 9.88941C18.0797 9.89239 18.0819 9.89454 18.0833 9.89589C18.0861 9.89858 18.0856 9.89816 18.0823 9.8948C18.0755 9.88795 18.0584 9.87014 18.0344 9.84284C17.9845 9.78614 17.9162 9.70113 17.8511 9.59925C17.6998 9.36224 17.6818 9.2199 17.6841 9.18352L13.6918 8.93552C13.6154 10.1651 14.1045 11.1641 14.4798 11.7519C14.6781 12.0625 14.878 12.3108 15.0306 12.4843C15.1078 12.5721 15.1754 12.6436 15.2281 12.6973C15.2545 12.7242 15.2774 12.7468 15.2962 12.765C15.3056 12.7741 15.3139 12.7822 15.3212 12.789C15.3248 12.7925 15.3281 12.7957 15.3312 12.7986C15.3328 12.8 15.3342 12.8014 15.3356 12.8027C15.3363 12.8033 15.337 12.804 15.3377 12.8046C15.338 12.8049 15.3385 12.8054 15.3386 12.8055C15.3391 12.806 15.3396 12.8064 16.702 11.3422ZM14.8672 7.2357C14.8745 7.23242 14.612 7.34093 14.3537 7.48738C14.0782 7.64359 13.7391 7.8747 13.4089 8.21379C12.7061 8.9357 12.2029 9.98496 12.1883 11.3807L16.1881 11.4226C16.1904 11.2063 16.227 11.0974 16.2429 11.0586C16.2584 11.0208 16.2708 11.0084 16.2749 11.0042C16.283 10.9959 16.2981 10.9832 16.3266 10.967C16.3724 10.941 16.3639 10.9485 16.5087 10.8833L14.8672 7.2357ZM14.1936 13.4017C14.533 13.4008 15.1874 13.3851 15.7313 13.3706C16.0088 13.3632 16.2665 13.3559 16.4547 13.3504C16.5489 13.3477 16.6258 13.3454 16.6792 13.3438C16.706 13.343 16.7268 13.3424 16.7411 13.3419C16.7482 13.3417 16.7536 13.3415 16.7573 13.3414C16.7592 13.3414 16.7606 13.3413 16.7615 13.3413C16.762 13.3413 16.7624 13.3413 16.7626 13.3413C16.7628 13.3413 16.7629 13.3413 16.7629 13.3413C16.763 13.3413 16.763 13.3413 16.763 13.3413C16.763 13.3413 16.7631 13.3413 16.702 11.3422C16.6409 9.34312 16.6409 9.34312 16.6409 9.34312C16.6409 9.34312 16.6409 9.34312 16.6409 9.34312C16.6408 9.34312 16.6407 9.34312 16.6406 9.34313C16.6404 9.34313 16.6401 9.34314 16.6397 9.34316C16.6388 9.34318 16.6375 9.34322 16.6358 9.34328C16.6323 9.34338 16.627 9.34354 16.6201 9.34375C16.6063 9.34417 16.5859 9.34478 16.5597 9.34557C16.5072 9.34714 16.4313 9.34939 16.3384 9.35209C16.1523 9.35751 15.8981 9.36474 15.6248 9.37201C15.0671 9.38686 14.4646 9.40093 14.1829 9.40168L14.1936 13.4017Z" fill="#8D58E3" mask="url(#path-10-inside-3_1:694)"/>
<mask id="path-12-inside-4_1:694" fill="white">
<path d="M51.147 28.8411C50.9121 28.6425 50.0015 27.7952 48.4566 28.5963C48.757 29.1757 49.6346 30.8317 49.6346 30.8317C49.6346 30.8317 49.9938 29.3071 51.147 28.8411Z"/>
</mask>
<path d="M51.147 28.8411L51.8964 30.6954L54.9693 29.4535L52.4382 27.3137L51.147 28.8411ZM48.4566 28.5963L47.5359 26.8208L45.7604 27.7415L46.6811 29.517L48.4566 28.5963ZM49.6346 30.8317L47.8674 31.7682L50.3603 36.4723L51.5813 31.2904L49.6346 30.8317ZM52.4382 27.3137C52.3372 27.2284 51.766 26.7006 50.8734 26.4299C49.9075 26.137 48.7559 26.1882 47.5359 26.8208L49.3773 30.3718C49.5608 30.2767 49.6629 30.2619 49.6914 30.2591C49.7182 30.2564 49.7206 30.2601 49.7126 30.2577C49.7105 30.2571 49.718 30.2589 49.7369 30.2715C49.7627 30.2887 49.7663 30.2928 49.8558 30.3684L52.4382 27.3137ZM46.6811 29.517C46.8355 29.8147 47.1338 30.3807 47.3898 30.8654C47.5186 31.1092 47.638 31.3349 47.7251 31.4995C47.7687 31.5818 47.8043 31.6489 47.8289 31.6955C47.8413 31.7188 47.8509 31.7369 47.8574 31.7493C47.8607 31.7554 47.8632 31.7601 47.8648 31.7633C47.8657 31.7649 47.8663 31.7661 47.8668 31.7669C47.867 31.7673 47.8671 31.7676 47.8672 31.7678C47.8673 31.768 47.8673 31.768 47.8674 31.7681C47.8674 31.7681 47.8674 31.7681 47.8674 31.7681C47.8674 31.7682 47.8674 31.7682 49.6346 30.8317C51.4018 29.8952 51.4018 29.8952 51.4018 29.8952C51.4018 29.8951 51.4018 29.8951 51.4018 29.8951C51.4017 29.8951 51.4017 29.895 51.4017 29.8949C51.4016 29.8947 51.4014 29.8944 51.4012 29.894C51.4008 29.8932 51.4002 29.8921 51.3993 29.8905C51.3977 29.8874 51.3952 29.8827 51.392 29.8766C51.3855 29.8644 51.376 29.8464 51.3637 29.8233C51.3392 29.777 51.3038 29.7102 51.2604 29.6282C51.1737 29.4643 51.0548 29.2397 50.9267 28.9971C50.6689 28.509 50.3781 27.9572 50.2321 27.6756L46.6811 29.517ZM49.6346 30.8317C51.5813 31.2904 51.5812 31.291 51.581 31.2916C51.581 31.2918 51.5808 31.2924 51.5807 31.2928C51.5805 31.2935 51.5804 31.2943 51.5802 31.295C51.5798 31.2965 51.5795 31.2979 51.5792 31.2992C51.5786 31.3019 51.578 31.3042 51.5775 31.3062C51.5765 31.3101 51.5758 31.3129 51.5754 31.3145C51.5746 31.3176 51.5749 31.3161 51.5765 31.3107C51.5796 31.2996 51.5873 31.2736 51.5999 31.237C51.6262 31.1606 51.6676 31.0566 51.7237 30.9511C51.8614 30.6925 51.9502 30.6737 51.8964 30.6954L50.3976 26.9868C49.1907 27.4745 48.5232 28.451 48.193 29.0712C48.0152 29.4051 47.8947 29.7114 47.8176 29.9353C47.7785 30.0489 47.7491 30.1457 47.7281 30.2198C47.7176 30.257 47.7091 30.2887 47.7024 30.3144C47.6991 30.3273 47.6963 30.3386 47.6939 30.3484C47.6926 30.3533 47.6916 30.3578 47.6906 30.3619C47.6901 30.3639 47.6896 30.3659 47.6892 30.3677C47.6889 30.3687 47.6887 30.3696 47.6885 30.3704C47.6884 30.3709 47.6883 30.3715 47.6882 30.3717C47.6881 30.3724 47.6879 30.373 49.6346 30.8317Z" fill="#8D58E3" mask="url(#path-12-inside-4_1:694)"/>
</g>
<defs>
<clipPath id="clip0_1:694">
<rect width="41.2066" height="40" fill="white" transform="translate(20) rotate(28.9008)"/>
</clipPath>
</defs>
</svg>
