<svg width="60" height="20" viewBox="0 0 60 20" fill="none" xmlns="http://www.w3.org/2000/svg">
<path d="M31.114 6.39887C31.114 9.04274 33.4843 10.5014 35.3077 11.4131C37.1311 12.3248 37.7692 12.8718 37.7692 13.6923C37.7692 14.8775 36.3105 15.4245 34.943 15.5157C33.2108 15.5157 31.5698 15.151 30.1111 14.3305L29.2906 18.3419C30.9316 18.9801 32.755 19.3447 34.5784 19.3447C39.5926 19.3447 42.7835 16.8832 42.8746 13.0541C42.8746 8.22223 36.2194 7.94872 36.2194 5.76069C36.2194 5.12251 36.8576 4.39317 38.2251 4.21083C39.8661 4.02849 41.416 4.302 42.8746 5.03134L43.6952 1.11112C42.2365 0.564108 40.7778 0.290604 39.2279 0.290604C34.396 0.290604 31.114 2.84331 31.114 6.39887ZM51.5356 0.564108C50.6239 0.564108 49.8946 1.11112 49.5299 1.93163L42.4188 18.8889H47.4331L48.4359 16.1539H54.5442L55.0912 18.8889H59.4673L55.6382 0.655276L51.5356 0.564108ZM52.265 5.66952L53.7237 12.5071H49.8034L52.265 5.66952ZM25.0969 0.655276L21.1767 18.8889H25.9174L29.7464 0.655276H25.188H25.0969ZM17.9858 0.655276L13.0627 13.0541L11.057 2.47864C10.8747 1.38462 9.96298 0.655276 8.86896 0.655276H0.846163L0.75499 1.20228C2.39602 1.56696 3.94588 2.0228 5.40457 2.75214C6.04274 3.02565 6.40741 3.66382 6.49858 4.302L10.2365 18.8889H15.2507L22.9088 0.655276H17.8946" fill="url(#paint0_linear_1:882)"/>
<defs>
<linearGradient id="paint0_linear_1:882" x1="0.80969" y1="9.82232" x2="59.4308" y2="9.82232" gradientUnits="userSpaceOnUse">
<stop stop-color="#274BA3"/>
<stop offset="1" stop-color="#6A70BE"/>
</linearGradient>
</defs>
</svg>
