<svg width="42" height="32" viewBox="0 0 42 32" fill="none" xmlns="http://www.w3.org/2000/svg">
<path d="M41.5271 12.7635C41.5271 19.7835 35.7835 25.5271 28.7635 25.5271C21.7436 25.5271 16 19.7835 16 12.7635C16 5.74359 21.7436 0 28.7635 0C35.7835 0 41.5271 5.74359 41.5271 12.7635Z" fill="#F79F1A"/>
<path d="M25.755 12.7635C25.755 19.7835 20.0114 25.5271 12.9915 25.5271C5.97153 25.5271 0.227936 19.7835 0.227936 12.7635C0.227936 5.74359 5.97153 0 12.9915 0C20.0114 0 25.755 5.74359 25.755 12.7635Z" fill="#EA001B"/>
<path d="M20.9231 2.73505C15.3618 7.11112 14.4502 15.1339 18.8262 20.6952C19.4644 21.5157 20.1938 22.245 20.9231 22.792C26.4843 18.416 27.396 10.3932 23.02 4.83191C22.3818 4.10257 21.6524 3.37322 20.9231 2.73505Z" fill="#FF5F01"/>
<path d="M3.14532 32H2.41597V28.3533H3.14532V28.8091C3.41882 28.5356 3.78349 28.3533 4.14817 28.2621C4.60401 28.2621 5.05985 28.5356 5.33335 28.9003C5.60685 28.5356 5.97153 28.2621 6.51854 28.2621C7.15672 28.2621 7.70373 28.7179 7.88606 29.3561V31.8177H7.15671V29.7208C7.15671 29.7208 7.15672 29.0826 6.33621 29.0826C5.51569 29.0826 5.42452 29.7208 5.42452 29.7208V31.8177H4.69518V29.7208C4.78634 29.7208 4.69518 29.0826 4.057 29.0826C3.23649 29.0826 3.23649 29.812 3.23649 29.812V32H3.14532Z" fill="white"/>
<path d="M25.0257 28.3533C24.661 28.4444 24.2963 28.6268 24.0228 28.8091V28.2621H23.2935V31.7265H24.0228V29.6296C24.0228 29.6296 24.0228 28.9915 24.8433 28.9915C24.9345 28.9915 25.1168 28.9915 25.208 29.0826L25.4815 28.4444C25.3903 28.3533 25.208 28.3533 25.0257 28.3533Z" fill="white"/>
<path d="M35.3277 28.3533C34.963 28.4444 34.5983 28.6268 34.3248 28.8091V28.2621H33.5955V31.7265H34.3248V29.6296C34.3248 29.6296 34.3248 28.9915 35.1453 28.9915C35.2365 28.9915 35.4188 28.9915 35.51 29.0826L35.7835 28.4444C35.6923 28.3533 35.51 28.3533 35.3277 28.3533Z" fill="white"/>
<path d="M10.0741 28.3533C9.16241 28.3533 8.34191 29.1738 8.43308 30.1766C8.43308 31.1795 9.16242 32 10.1653 32C10.6211 32 10.9858 31.8177 11.3505 31.5442V31.8177H12.0798V28.3533H11.0769V28.9003C11.1681 28.9003 10.7123 28.3533 10.0741 28.3533ZM10.1653 28.9914C10.8034 28.9914 11.3505 29.4473 11.3505 29.9943C11.3505 30.6325 10.8946 31.1795 10.3476 31.1795C9.70942 31.1795 9.16241 30.7236 9.16241 30.1766V30.0855C9.16241 29.5385 9.61826 29.0826 10.1653 28.9914Z" fill="white"/>
<path d="M30.7692 28.3533C29.8576 28.3533 29.0371 29.1738 29.1282 30.1766C29.1282 31.1795 29.8576 32 30.8604 32C31.3162 32 31.7721 31.8177 32.1368 31.5442V31.8177H32.5926V28.3533H31.8633V28.9003C31.5898 28.5356 31.2251 28.3533 30.7692 28.3533ZM30.9516 28.9914C31.5898 28.9914 32.1368 29.4473 32.1368 29.9943C32.1368 30.6325 31.6809 31.1795 31.1339 31.1795C30.4957 31.1795 29.9487 30.7236 29.9487 30.1766V30.0855C29.8576 29.5385 30.3134 29.0826 30.9516 28.9914C30.9516 29.0826 30.9516 29.0826 30.9516 28.9914Z" fill="white"/>
<path d="M37.6069 28.3533C36.6952 28.3533 35.8747 29.1738 35.9658 30.1766C35.9658 31.1795 36.6952 32 37.698 32C38.0627 32 38.5185 31.8176 38.792 31.5441V31.8176H39.5214V27.0769H38.5185V28.8091C38.792 28.9003 38.3362 28.3533 37.6069 28.3533ZM37.7892 28.9914C38.4274 28.9914 38.9744 29.4473 38.9744 29.9943C38.9744 30.6325 38.5185 31.1795 37.9715 31.1795C37.3334 31.1795 36.7863 30.7236 36.7863 30.1766V30.0855C36.6952 29.5384 37.151 29.0826 37.7892 28.9914Z" fill="white"/>
<path d="M14.0855 31.9088C13.5385 31.9088 13.0826 31.7265 12.6268 31.453L12.9003 30.9971C13.265 31.1795 13.6296 31.2707 13.9943 31.2707C14.2678 31.2707 14.8148 31.1795 14.8148 30.906C14.8148 30.6325 13.9943 30.4501 13.9943 30.4501C13.9943 30.4501 12.718 30.4501 12.718 29.3561C12.718 28.7179 13.3561 28.2621 14.1767 28.2621C14.6325 28.3533 15.0883 28.4444 15.5442 28.7179L15.1795 29.265C14.8148 29.1738 14.5413 28.9915 14.1767 28.9915C13.9031 28.9915 13.5385 29.1738 13.5385 29.3561C13.5385 30.0855 15.6353 29.265 15.6353 30.7236C15.6353 31.7265 14.8148 31.9088 14.0855 31.9088Z" fill="white"/>
<path d="M16.9117 27.3504V28.3533H16.1823V29.0826H16.9117V30.8148C16.8205 31.3618 17.2764 31.9088 17.9145 32H18.0057C18.2792 31.9088 18.6439 31.9088 18.9174 31.7265L18.6439 30.9972C18.4615 31.0883 18.2792 31.1795 18.0969 31.1795C17.5499 31.1795 17.5499 30.8148 17.5499 30.8148V29.0826H18.8262V28.3533H17.5499V27.3504H16.9117Z" fill="white"/>
<path d="M21.1054 28.2621C20.1026 28.4444 19.4644 29.4473 19.6467 30.359C19.8291 31.0883 20.3761 31.7265 21.1966 31.8177C21.6525 31.7265 22.1083 31.5442 22.473 31.3618L22.1083 30.8148C21.8348 30.9972 21.4701 31.1795 21.1054 31.1795C20.5584 31.1795 20.1026 30.8148 20.1026 30.2678H22.5641C22.6553 30.2678 22.8376 28.2621 21.1054 28.2621ZM21.0143 28.9915H21.1054C21.5613 28.9915 21.9259 29.265 21.9259 29.7208C21.9259 29.7208 21.9259 29.7208 21.9259 29.812H20.1938C20.1938 29.3561 20.4673 28.9915 21.0143 28.9915C20.9231 28.9915 20.9231 28.9915 21.0143 28.9915Z" fill="white"/>
<path d="M28.3989 30.906L28.7636 31.5442C28.3989 31.7265 28.0342 31.9088 27.6695 31.9088C26.6667 31.9088 25.8462 31.1795 25.755 30.1766V30.0855C25.755 29.1738 26.4843 28.3533 27.396 28.3533C27.4872 28.3533 27.4872 28.3533 27.5784 28.3533C28.0342 28.3533 28.3989 28.5356 28.8547 28.7179L28.4901 29.4473C28.3077 29.1738 27.9431 29.0826 27.5784 29.0826C26.9402 29.1738 26.5755 29.812 26.7579 30.4501C26.849 30.906 27.2137 31.1795 27.5784 31.2706C27.8519 31.2706 28.1254 31.1795 28.3989 30.906Z" fill="white"/>
<path d="M40.9801 31.3618C40.8889 31.3618 40.7977 31.3618 40.7066 31.453C40.6154 31.5442 40.6154 31.8177 40.7066 31.9088C40.8889 32 41.0712 32 41.1624 31.9088C41.2536 31.8177 41.2536 31.5442 41.1624 31.453C41.1624 31.3618 41.0712 31.3618 40.9801 31.3618ZM40.9801 32C40.7977 32 40.7066 31.9088 40.7066 31.7265C40.7066 31.5442 40.7977 31.453 40.9801 31.453C41.0712 31.453 41.0712 31.453 41.1624 31.5442C41.2536 31.6353 41.2536 31.8177 41.1624 31.9088C41.0712 31.9088 41.0712 32 40.9801 32ZM40.9801 31.5442V31.8177V32.0912H40.8889L40.9801 31.8177H41.0712H40.9801H41.0712C41.0712 31.8177 41.0712 31.8177 41.0712 31.7265V31.6353C41.0712 31.5442 40.9801 31.5442 40.9801 31.5442ZM40.9801 31.5442C40.9801 31.6353 40.9801 31.6353 40.9801 31.5442C40.9801 31.6353 40.9801 31.6353 40.9801 31.5442Z" fill="black"/>
</svg>
