<svg width="85" height="28" viewBox="0 0 85 28" fill="none" xmlns="http://www.w3.org/2000/svg">
<path d="M84.7863 0.0966797H0V27.4471H84.7863V0.0966797Z" fill="#FF0000"/>
<path d="M5.65244 11.3104L7.38463 10.6722V11.4927C7.84047 10.8546 8.56981 10.5811 9.29916 10.5811C10.849 10.5811 12.0342 11.8574 12.0342 13.4073C12.0342 13.4984 12.0342 13.4984 12.0342 13.5896C12.2165 15.0483 11.1225 16.4158 9.57266 16.5981C9.4815 16.5981 9.39033 16.5981 9.29916 16.5981C8.56981 16.5981 7.84047 16.2335 7.38463 15.6865V18.3303H5.65244V11.3104ZM10.2108 13.5896C10.302 12.7691 9.755 12.0397 9.02565 11.9486C8.29631 11.8574 7.4758 12.4044 7.38463 13.1338C7.38463 13.2249 7.38463 13.4073 7.38463 13.4984C7.29346 14.3189 7.84047 15.0483 8.56981 15.1395C9.29916 15.2306 10.1197 14.6836 10.2108 13.9543C10.2108 13.8631 10.2108 13.6808 10.2108 13.5896Z" fill="white"/>
<path d="M18.8718 10.5811H20.604V11.5839C20.9687 10.7634 21.5157 10.5811 22.6097 10.5811V12.0397H22.5185C21.3333 12.0397 20.6952 12.9514 20.6952 14.4101V16.507H18.963V10.5811H18.8718Z" fill="white"/>
<path d="M23.7949 14.866V12.0398H23.0655V10.5811H23.7949V9.66943L25.5271 9.03125V10.5811H26.9858V12.0398H25.5271V14.5013C25.5271 14.866 25.7094 15.0483 25.9829 15.0483C26.2564 15.0483 26.5299 14.9572 26.7122 14.866V16.2335C26.3476 16.507 25.8917 16.5982 25.4359 16.5982C24.433 16.507 23.7949 16.1424 23.7949 14.866Z" fill="white"/>
<path d="M27.5328 10.5814H29.1738V11.4019C29.5385 10.8549 30.1766 10.4902 30.8148 10.4902C31.453 10.4902 32.0912 10.7637 32.4558 11.4019C32.9117 10.8549 33.641 10.4902 34.3704 10.4902C35.5555 10.4902 36.2849 11.2196 36.2849 12.6783V16.5073H34.8262V13.2253C34.8262 12.4048 34.4615 12.0401 33.8234 12.0401C33.1852 12.0401 32.8205 12.4048 32.8205 13.2253V16.5073H31.0883V13.2253C31.0883 12.4048 30.7236 12.0401 30.0855 12.0401C29.4473 12.0401 29.1738 12.4048 29.1738 13.2253V16.5073H27.4416V10.5814H27.5328Z" fill="white"/>
<path d="M43.6695 10.5814H45.4017V11.4019C45.7664 10.8549 46.4046 10.4902 47.1339 10.4902C48.2279 10.4902 49.0484 11.3107 49.1396 12.3136C49.1396 12.4048 49.1396 12.4959 49.1396 12.6783V16.5073H47.4074V13.2253C47.4074 12.4048 47.0427 12.0401 46.4046 12.0401C45.7664 12.0401 45.4017 12.4048 45.4017 13.2253V16.5073H43.6695V10.5814Z" fill="white"/>
<path d="M49.6866 13.6809C49.5954 12.0399 50.8718 10.7635 52.4217 10.6724H52.5128C54.4273 10.6724 55.339 12.1311 55.339 13.8632C55.339 13.9544 55.339 14.1368 55.339 14.3191H51.2365C51.3276 15.0484 51.9658 15.5043 52.6952 15.4131C53.2422 15.4131 53.698 15.2308 54.1538 14.8661L54.6097 16.1424C54.0627 16.5983 53.4245 16.7806 52.6952 16.7806C51.0541 16.8718 49.6866 15.5954 49.6866 13.9544C49.6866 13.8632 49.6866 13.7721 49.6866 13.6809ZM53.7892 13.0427C53.7892 12.4046 53.2422 11.8575 52.604 11.7664C51.9658 11.7664 51.4188 12.3134 51.3276 13.0427H53.7892Z" fill="white"/>
<path d="M57.8917 13.5896C57.8917 11.9486 59.1681 10.5811 60.8091 10.5811H60.9003C61.5384 10.5811 62.1766 10.7634 62.7236 11.1281C62.6325 11.4927 62.1766 12.4956 62.1766 12.4956C61.8119 12.1309 61.3561 11.9486 60.8091 11.9486C59.8974 12.0397 59.2592 12.8603 59.4416 13.7719C59.5327 14.5013 60.1709 15.1395 60.9003 15.1395C61.4473 15.1395 61.9031 14.866 62.2678 14.5013L62.8148 15.8688C62.2678 16.3246 61.6296 16.507 60.9003 16.507C59.2592 16.507 57.8917 15.2306 57.8917 13.5896C57.8917 13.6808 57.8917 13.5896 57.8917 13.5896Z" fill="white"/>
<path d="M70.0171 10.5814H71.7493V11.4019C72.114 10.8549 72.7521 10.4902 73.3903 10.4902C74.0285 10.4902 74.6667 10.7637 75.0314 11.4019C75.4872 10.8549 76.2165 10.4902 76.9459 10.4902C78.1311 10.4902 78.8604 11.2196 78.8604 12.6783V16.5073H77.4017V13.2253C77.4017 12.4048 77.037 12.0401 76.3989 12.0401C75.7607 12.0401 75.396 12.4048 75.396 13.2253V16.5073H73.6638V13.2253C73.6638 12.4048 73.2992 12.0401 72.661 12.0401C72.0228 12.0401 71.6581 12.4048 71.6581 13.2253V16.5073H69.9259L70.0171 10.5814Z" fill="white"/>
<path d="M56.6154 16.5983C57.0685 16.5983 57.4359 16.1901 57.4359 15.6866C57.4359 15.1831 57.0685 14.7749 56.6154 14.7749C56.1622 14.7749 55.7949 15.1831 55.7949 15.6866C55.7949 16.1901 56.1622 16.5983 56.6154 16.5983Z" fill="white"/>
<path d="M15.3162 16.5984C13.584 16.5984 12.2165 15.2308 12.2165 13.4986C12.2165 11.7664 13.584 10.3989 15.3162 10.3989C17.0484 10.3989 18.416 11.7664 18.416 13.4986C18.3248 15.2308 16.9573 16.5984 15.3162 16.5984ZM15.3162 12.04C14.4957 12.04 13.8575 12.6781 13.8575 13.4986C13.8575 14.3192 14.4957 14.9573 15.3162 14.9573C16.1367 14.9573 16.7749 14.3192 16.7749 13.4986C16.6838 12.7693 16.0456 12.1311 15.3162 12.04Z" fill="white"/>
<path d="M40.114 16.5984C38.3818 16.5984 37.0143 15.2308 37.0143 13.4986C37.0143 11.7664 38.3818 10.3989 40.114 10.3989C41.8462 10.3989 43.2137 11.7664 43.2137 13.4986C43.2137 15.2308 41.8462 16.5984 40.114 16.5984ZM40.114 12.04C39.2935 12.04 38.6553 12.6781 38.6553 13.4986C38.6553 14.3192 39.2935 14.9573 40.114 14.9573C40.9345 14.9573 41.5727 14.3192 41.5727 13.4986C41.5727 12.7693 40.9345 12.1311 40.114 12.04Z" fill="white"/>
<path d="M66.188 16.5984C64.4558 16.5984 63.0883 15.2308 63.0883 13.4986C63.0883 11.7664 64.4558 10.3989 66.188 10.3989C67.9202 10.3989 69.2877 11.7664 69.2877 13.4986C69.2877 15.2308 67.9202 16.5984 66.188 16.5984ZM66.188 12.04C65.3675 12.04 64.7293 12.6781 64.7293 13.4986C64.7293 14.3192 65.3675 14.9573 66.188 14.9573C67.0085 14.9573 67.6467 14.3192 67.6467 13.4986C67.6467 12.7693 67.0085 12.1311 66.188 12.04Z" fill="white"/>
</svg>
