<svg width="14" height="14" viewBox="0 0 14 14" fill="none" xmlns="http://www.w3.org/2000/svg">
<path d="M7.00016 13.6667C3.31816 13.6667 0.333496 10.682 0.333496 7.00004C0.333496 3.31804 3.31816 0.333374 7.00016 0.333374C10.6822 0.333374 13.6668 3.31804 13.6668 7.00004C13.6668 10.682 10.6822 13.6667 7.00016 13.6667ZM7.00016 12.3334C8.41465 12.3334 9.77121 11.7715 10.7714 10.7713C11.7716 9.77108 12.3335 8.41453 12.3335 7.00004C12.3335 5.58555 11.7716 4.229 10.7714 3.2288C9.77121 2.22861 8.41465 1.66671 7.00016 1.66671C5.58567 1.66671 4.22912 2.22861 3.22893 3.2288C2.22873 4.229 1.66683 5.58555 1.66683 7.00004C1.66683 8.41453 2.22873 9.77108 3.22893 10.7713C4.22912 11.7715 5.58567 12.3334 7.00016 12.3334ZM6.3335 9.00004H7.66683V10.3334H6.3335V9.00004ZM7.66683 7.90337V8.33337H6.3335V7.33337C6.3335 7.15656 6.40373 6.98699 6.52876 6.86197C6.65378 6.73695 6.82335 6.66671 7.00016 6.66671C7.18955 6.6667 7.37504 6.6129 7.53505 6.51159C7.69506 6.41028 7.82301 6.26562 7.90401 6.09443C7.98501 5.92324 8.01574 5.73257 7.99262 5.5446C7.96949 5.35663 7.89347 5.1791 7.77339 5.03265C7.6533 4.8862 7.4941 4.77686 7.31431 4.71735C7.13452 4.65785 6.94152 4.65062 6.75778 4.69651C6.57404 4.7424 6.40711 4.83953 6.27641 4.97658C6.14571 5.11364 6.05662 5.285 6.0195 5.47071L4.7115 5.20871C4.79258 4.80343 4.97984 4.42695 5.25411 4.11776C5.52838 3.80858 5.87984 3.57776 6.27256 3.44892C6.66527 3.32008 7.08515 3.29783 7.48928 3.38445C7.89342 3.47107 8.2673 3.66345 8.57271 3.94192C8.87812 4.2204 9.10411 4.57498 9.22757 4.96942C9.35103 5.36385 9.36754 5.784 9.27541 6.18691C9.18327 6.58982 8.9858 6.96104 8.70318 7.26262C8.42055 7.56419 8.06292 7.78531 7.66683 7.90337Z" fill="#7B94B0"/>
</svg>
